<?xml version="1.0" encoding="UTF-8" standalone="no"?>
<!-- Created with Inkscape (http://www.inkscape.org/) -->

<svg
   xmlns:ns0="http://www.iki.fi/pav/software/textext/"
   xmlns:dc="http://purl.org/dc/elements/1.1/"
   xmlns:cc="http://creativecommons.org/ns#"
   xmlns:rdf="http://www.w3.org/1999/02/22-rdf-syntax-ns#"
   xmlns:svg="http://www.w3.org/2000/svg"
   xmlns="http://www.w3.org/2000/svg"
   xmlns:xlink="http://www.w3.org/1999/xlink"
   xmlns:sodipodi="http://sodipodi.sourceforge.net/DTD/sodipodi-0.dtd"
   xmlns:inkscape="http://www.inkscape.org/namespaces/inkscape"
   sodipodi:docname="feedback_combustion.svg"
   inkscape:version="0.48.3.1 r9886"
   version="1.1"
   id="svg3165"
   height="297mm"
   width="210mm">
  <sodipodi:namedview
     inkscape:document-units="mm"
     id="base"
     pagecolor="#ffffff"
     bordercolor="#666666"
     borderopacity="1.0"
     inkscape:pageopacity="0.0"
     inkscape:pageshadow="2"
     inkscape:zoom="1.6295757"
     inkscape:cx="255.13457"
     inkscape:cy="988.01957"
     inkscape:current-layer="svg3165"
     showgrid="false"
     inkscape:window-width="1871"
     inkscape:window-height="1056"
     inkscape:window-x="49"
     inkscape:window-y="24"
     inkscape:window-maximized="1" />
  <defs
     id="defs3">
    <clipPath
       clipPathUnits="userSpaceOnUse"
       id="clipPath104">
      <path
         d="m 0,84.25 303.673,0 0,-84.25 L 0,0 0,84.25 z"
         id="path106"
         inkscape:connector-curvature="0" />
    </clipPath>
    <clipPath
       clipPathUnits="userSpaceOnUse"
       id="clipPath60">
      <path
         d="m 0,84.25 303.673,0 0,-84.25 L 0,0 0,84.25 z"
         id="path62"
         inkscape:connector-curvature="0" />
    </clipPath>
    <clipPath
       clipPathUnits="userSpaceOnUse"
       id="clipPath42">
      <path
         d="m 0,84.25 303.673,0 0,-84.25 L 0,0 0,84.25 z"
         id="path44"
         inkscape:connector-curvature="0" />
    </clipPath>
    <clipPath
       clipPathUnits="userSpaceOnUse"
       id="clipPath16">
      <path
         d="m 0,84.25 303.673,0 0,-84.25 L 0,0 0,84.25 z"
         id="path18"
         inkscape:connector-curvature="0" />
    </clipPath>
  </defs>
  <metadata
     id="metadata4">
    <rdf:RDF>
      <cc:Work
         rdf:about="">
        <dc:format>image/svg+xml</dc:format>
        <dc:type
           rdf:resource="http://purl.org/dc/dcmitype/StillImage" />
      </cc:Work>
    </rdf:RDF>
  </metadata>
  <g
     id="layer1"
     inkscape:groupmode="layer"
     inkscape:label="Layer 1" />
  <g
     id="g12"
     transform="matrix(1.25,0,0,-1.25,40.502671,170.50008)">
    <g
       id="g14"
       clip-path="url(#clipPath16)">
      <g
         id="g20"
         transform="translate(88.7007,67.042)">
        <path
           d="M 0,0 C 0,4.163 -3.337,7.5 -7.5,7.5 -11.663,7.5 -15,4.163 -15,0 c 0,-4.163 3.337,-7.5 7.5,-7.5 4.163,0 7.5,3.337 7.5,7.5"
           style="fill:#d2c9e9;fill-opacity:1;fill-rule:nonzero;stroke:none"
           id="path22"
           inkscape:connector-curvature="0" />
      </g>
      <g
         id="g24"
         transform="translate(88.7007,67.042)">
        <path
           d="M 0,0 C 0,4.163 -3.337,7.5 -7.5,7.5 -11.663,7.5 -15,4.163 -15,0 c 0,-4.163 3.337,-7.5 7.5,-7.5 4.163,0 7.5,3.337 7.5,7.5 z"
           style="fill:none;stroke:#231f20;stroke-width:0.398;stroke-linecap:butt;stroke-linejoin:miter;stroke-miterlimit:10;stroke-opacity:1;stroke-dasharray:none"
           id="path26"
           inkscape:connector-curvature="0" />
      </g>
      <path
         d="m 135.599,52.042 79.57,0 0,30 -79.57,0 0,-30 z"
         style="fill:#d2c9e9;fill-opacity:1;fill-rule:nonzero;stroke:#231f20;stroke-width:0.398;stroke-linecap:butt;stroke-linejoin:miter;stroke-miterlimit:10;stroke-opacity:1;stroke-dasharray:none"
         id="path28"
         inkscape:connector-curvature="0" />
      <g
         id="g7693"
         ns0:preamble=""
         ns0:text="\\large $+$"
         transform="scale(1.000000,1.000000)">
        <defs
           id="defs7695">
          <g
             id="g7697">
            <symbol
               id="textext-47188942-0"
               overflow="visible">
              <path
                 id="path7700"
                 d="M 4.765625 -2.765625 L 8.0625 -2.765625 C 8.234375 -2.765625 8.453125 -2.765625 8.453125 -2.96875 C 8.453125 -3.203125 8.25 -3.203125 8.0625 -3.203125 L 4.765625 -3.203125 L 4.765625 -6.5 C 4.765625 -6.671875 4.765625 -6.890625 4.546875 -6.890625 C 4.328125 -6.890625 4.328125 -6.6875 4.328125 -6.5 L 4.328125 -3.203125 L 1.03125 -3.203125 C 0.859375 -3.203125 0.640625 -3.203125 0.640625 -2.984375 C 0.640625 -2.765625 0.84375 -2.765625 1.03125 -2.765625 L 4.328125 -2.765625 L 4.328125 0.53125 C 4.328125 0.703125 4.328125 0.921875 4.546875 0.921875 C 4.765625 0.921875 4.765625 0.71875 4.765625 0.53125 Z M 4.765625 -2.765625 "
                 style="stroke:none;" />
            </symbol>
          </g>
        </defs>
        <g
           id="textext-47188942-1">
          <g
             id="g7703"
             style="fill:rgb(0%,0%,0%);fill-opacity:1;">
            <use
               id="use7705"
               y="134.765"
               x="223.432"
               xlink:href="#textext-47188942-0" />
          </g>
        </g>
      </g>
    </g>
  </g>
  <g
     id="g38"
     transform="matrix(1.25,0,0,-1.25,40.502671,170.50008)">
    <g
       id="g40"
       clip-path="url(#clipPath42)">
      <path
         d="m 141.156,1.014 68.456,0 0,30 -68.456,0 0,-30 z"
         style="fill:#d2c9e9;fill-opacity:1;fill-rule:nonzero;stroke:#231f20;stroke-width:0.398;stroke-linecap:butt;stroke-linejoin:miter;stroke-miterlimit:10;stroke-opacity:1;stroke-dasharray:none"
         id="path46"
         inkscape:connector-curvature="0" />
    </g>
  </g>
  <g
     id="g56"
     transform="matrix(1.25,0,0,-1.25,40.502671,170.50008)">
    <g
       id="g58"
       clip-path="url(#clipPath60)">
      <g
         id="g64"
         transform="translate(18.0479,67.042)">
        <path
           d="M 0,0 52.127,0"
           style="fill:none;stroke:#231f20;stroke-width:0.56692914;stroke-linecap:butt;stroke-linejoin:miter;stroke-miterlimit:10;stroke-opacity:1;stroke-dasharray:none"
           id="path66"
           inkscape:connector-curvature="0" />
      </g>
      <g
         id="g68"
         transform="translate(69.3862,65.8857)">
        <path
           d="M 0,0 4.314,1.155 0,2.313 0,0 z"
           style="fill:#231f20;fill-opacity:1;fill-rule:nonzero;stroke:none"
           id="path70"
           inkscape:connector-curvature="0" />
      </g>
      <g
         id="g72"
         transform="translate(215.2422,67.042)">
        <path
           d="M 0,0 61.38,0"
           style="fill:none;stroke:#231f20;stroke-width:0.56692914;stroke-linecap:butt;stroke-linejoin:miter;stroke-miterlimit:10;stroke-opacity:1;stroke-dasharray:none"
           id="path74"
           inkscape:connector-curvature="0" />
      </g>
      <g
         id="g76"
         transform="translate(275.834,65.8857)">
        <path
           d="M 0,0 4.314,1.155 0,2.313 0,0 z"
           style="fill:#231f20;fill-opacity:1;fill-rule:nonzero;stroke:none"
           id="path78"
           inkscape:connector-curvature="0" />
      </g>
      <g
         id="g80"
         transform="translate(261.9521,67.042)">
        <path
           d="m -1.2597263,0 0,-51.028 -47.1762737,0"
           style="fill:none;stroke:#231f20;stroke-width:0.56692914;stroke-linecap:butt;stroke-linejoin:miter;stroke-miterlimit:10;stroke-opacity:1;stroke-dasharray:none"
           id="path82"
           inkscape:connector-curvature="0" />
      </g>
      <g
         id="g84"
         transform="translate(214.3047,17.1699)">
        <path
           d="M 0,0 -4.314,-1.155 0,-2.313 0,0 z"
           style="fill:#231f20;fill-opacity:1;fill-rule:nonzero;stroke:none"
           id="path86"
           inkscape:connector-curvature="0" />
      </g>
      <g
         id="g88"
         transform="translate(141.4355,14.3467)">
        <path
           d="m 0,0 -60.235,0 0,41.593"
           style="fill:none;stroke:#231f20;stroke-width:0.56692914;stroke-linecap:butt;stroke-linejoin:miter;stroke-miterlimit:10;stroke-opacity:1;stroke-dasharray:none"
           id="path90"
           inkscape:connector-curvature="0" />
      </g>
      <g
         id="g92"
         transform="translate(82.3569,55.1514)">
        <path
           d="M 0,0 -1.155,4.314 -2.313,0 0,0 z"
           style="fill:#231f20;fill-opacity:1;fill-rule:nonzero;stroke:none"
           id="path94"
           inkscape:connector-curvature="0" />
      </g>
    </g>
  </g>
  <g
     id="g100"
     transform="matrix(1.25,0,0,-1.25,40.502671,170.50008)">
    <g
       id="g102"
       clip-path="url(#clipPath104)">
      <g
         id="g108"
         transform="translate(88.7007,67.042)">
        <path
           d="M 0,0 43.443,0"
           style="fill:none;stroke:#231f20;stroke-width:0.56692914;stroke-linecap:butt;stroke-linejoin:miter;stroke-miterlimit:10;stroke-opacity:1;stroke-dasharray:none"
           id="path110"
           inkscape:connector-curvature="0" />
      </g>
      <g
         id="g112"
         transform="translate(131.3555,65.8857)">
        <path
           d="M 0,0 4.314,1.155 0,2.313 0,0 z"
           style="fill:#231f20;fill-opacity:1;fill-rule:nonzero;stroke:none"
           id="path114"
           inkscape:connector-curvature="0" />
      </g>
    </g>
  </g>
  <g
     id="g4930"
     transform="translate(-135.55,-51.203169)"
     ns0:preamble=""
     ns0:text="\\begin{center}\n\\textbf{Heat Release}\\\\\n\\small (Flame Kinematics)\n\\end{center}">
    <defs
       id="defs4932">
      <g
         id="g4934">
        <symbol
           id="textext-e01a9332-0"
           overflow="visible"
           style="overflow:visible">
          <path
             id="path4937"
             d="m 7.5,-6.375 1.078125,0 0,-0.46875 C 8.1875,-6.8125 7.21875,-6.8125 6.78125,-6.8125 c -0.421875,0 -1.390625,0 -1.78125,-0.03125 l 0,0.46875 1.078125,0 0,2.59375 -3.203125,0 0,-2.59375 1.078125,0 0,-0.46875 c -0.375,0.03125 -1.34375,0.03125 -1.78125,0.03125 -0.421875,0 -1.40625,0 -1.78125,-0.03125 l 0,0.46875 1.078125,0 0,5.90625 -1.078125,0 0,0.46875 c 0.375,-0.03125 1.359375,-0.03125 1.78125,-0.03125 0.4375,0 1.40625,0 1.78125,0.03125 l 0,-0.46875 -1.078125,0 0,-2.84375 3.203125,0 0,2.84375 L 5,-0.46875 5,0 c 0.390625,-0.03125 1.359375,-0.03125 1.78125,-0.03125 0.4375,0 1.40625,0 1.796875,0.03125 l 0,-0.46875 -1.078125,0 z m 0,0"
             style="stroke:none"
             inkscape:connector-curvature="0" />
        </symbol>
        <symbol
           id="textext-e01a9332-1"
           overflow="visible"
           style="overflow:visible">
          <path
             id="path4940"
             d="m 4.609375,-2.171875 c 0.21875,0 0.3125,0 0.3125,-0.265625 0,-0.3125 -0.0625,-1.046875 -0.5625,-1.546875 C 4,-4.34375 3.46875,-4.515625 2.78125,-4.515625 c -1.59375,0 -2.46875,1.03125 -2.46875,2.265625 0,1.34375 1,2.3125 2.609375,2.3125 1.578125,0 2,-1.0625 2,-1.234375 0,-0.171875 -0.1875,-0.171875 -0.234375,-0.171875 -0.171875,0 -0.1875,0.046875 -0.25,0.203125 -0.203125,0.484375 -0.78125,0.796875 -1.421875,0.796875 -1.40625,0 -1.421875,-1.328125 -1.421875,-1.828125 z M 1.59375,-2.5 C 1.609375,-2.890625 1.625,-3.3125 1.828125,-3.640625 2.09375,-4.03125 2.5,-4.15625 2.78125,-4.15625 c 1.171875,0 1.1875,1.3125 1.203125,1.65625 z m 0,0"
             style="stroke:none"
             inkscape:connector-curvature="0" />
        </symbol>
        <symbol
           id="textext-e01a9332-2"
           overflow="visible"
           style="overflow:visible">
          <path
             id="path4943"
             d="m 3.734375,-0.765625 c 0,0.3125 0,0.765625 1.03125,0.765625 L 5.25,0 C 5.4375,0 5.5625,0 5.5625,-0.234375 5.5625,-0.46875 5.4375,-0.46875 5.296875,-0.46875 4.6875,-0.484375 4.6875,-0.609375 4.6875,-0.84375 l 0,-2.140625 c 0,-0.890625 -0.703125,-1.53125 -2.1875,-1.53125 -0.5625,0 -1.78125,0.046875 -1.78125,0.921875 0,0.4375 0.34375,0.625 0.609375,0.625 0.3125,0 0.640625,-0.21875 0.640625,-0.625 0,-0.296875 -0.1875,-0.46875 -0.21875,-0.5 0.28125,-0.046875 0.59375,-0.0625 0.71875,-0.0625 0.734375,0 1.09375,0.421875 1.09375,1.171875 l 0,0.34375 c -0.71875,0.03125 -3.25,0.125 -3.25,1.5625 0,0.953125 1.25,1.140625 1.9375,1.140625 0.796875,0 1.265625,-0.40625 1.484375,-0.828125 z m -0.171875,-1.5625 0,0.9375 c 0,0.96875 -0.921875,1.09375 -1.171875,1.09375 -0.5,0 -0.90625,-0.34375 -0.90625,-0.796875 0,-1.0625 1.578125,-1.203125 2.078125,-1.234375 z m 0,0"
             style="stroke:none"
             inkscape:connector-curvature="0" />
        </symbol>
        <symbol
           id="textext-e01a9332-3"
           overflow="visible"
           style="overflow:visible">
          <path
             id="path4946"
             d="m 1.03125,-3.953125 0,2.734375 c 0,1.0625 0.859375,1.28125 1.578125,1.28125 0.75,0 1.203125,-0.578125 1.203125,-1.296875 l 0,-0.53125 -0.46875,0 0,0.515625 c 0,0.671875 -0.328125,0.90625 -0.609375,0.90625 -0.578125,0 -0.578125,-0.640625 -0.578125,-0.859375 l 0,-2.75 1.46875,0 0,-0.46875 -1.46875,0 0,-1.90625 -0.46875,0 c 0,1 -0.484375,1.984375 -1.484375,2.015625 l 0,0.359375 z m 0,0"
             style="stroke:none"
             inkscape:connector-curvature="0" />
        </symbol>
        <symbol
           id="textext-e01a9332-4"
           overflow="visible"
           style="overflow:visible">
          <path
             id="path4949"
             d="m 2.828125,-3.59375 0,-2.78125 1.171875,0 c 1.609375,0 1.625,0.78125 1.625,1.390625 0,0.5625 0,1.390625 -1.640625,1.390625 z m 2.65625,0.203125 C 6.640625,-3.6875 7.140625,-4.34375 7.140625,-5 c 0,-1 -1.09375,-1.84375 -2.96875,-1.84375 l -3.78125,0 0,0.46875 1.078125,0 0,5.90625 -1.078125,0 0,0.46875 c 0.359375,-0.03125 1.328125,-0.03125 1.75,-0.03125 0.421875,0 1.390625,0 1.75,0.03125 l 0,-0.46875 -1.0625,0 0,-2.765625 1.15625,0 c 0.140625,0 0.578125,0 0.890625,0.328125 0.3125,0.359375 0.3125,0.546875 0.3125,1.265625 0,0.65625 0,1.15625 0.703125,1.484375 0.4375,0.21875 1.0625,0.265625 1.46875,0.265625 1.0625,0 1.1875,-0.890625 1.1875,-1.0625 0,-0.21875 -0.140625,-0.21875 -0.234375,-0.21875 -0.203125,0 -0.21875,0.109375 -0.234375,0.234375 C 8.03125,-0.46875 7.75,-0.25 7.453125,-0.25 c -0.609375,0 -0.6875,-0.703125 -0.75,-1.125 C 6.6875,-1.484375 6.609375,-2.171875 6.59375,-2.21875 6.453125,-2.921875 5.90625,-3.234375 5.484375,-3.390625 z m 0,0"
             style="stroke:none"
             inkscape:connector-curvature="0" />
        </symbol>
        <symbol
           id="textext-e01a9332-5"
           overflow="visible"
           style="overflow:visible">
          <path
             id="path4952"
             d="m 2.234375,-6.921875 -1.765625,0.078125 0,0.46875 c 0.625,0 0.6875,0 0.6875,0.390625 l 0,5.515625 -0.6875,0 0,0.46875 c 0.3125,-0.015625 0.796875,-0.03125 1.21875,-0.03125 0.4375,0 0.890625,0.015625 1.234375,0.03125 l 0,-0.46875 -0.6875,0 z m 0,0"
             style="stroke:none"
             inkscape:connector-curvature="0" />
        </symbol>
        <symbol
           id="textext-e01a9332-6"
           overflow="visible"
           style="overflow:visible">
          <path
             id="path4955"
             d="M 2.109375,-2.9375 C 1.734375,-3 1.09375,-3.109375 1.09375,-3.578125 c 0,-0.625 0.921875,-0.625 1.109375,-0.625 0.75,0 1.125,0.296875 1.171875,0.84375 0.015625,0.15625 0.03125,0.203125 0.234375,0.203125 0.234375,0 0.234375,-0.046875 0.234375,-0.28125 l 0,-0.796875 c 0,-0.1875 0,-0.28125 -0.171875,-0.28125 -0.046875,0 -0.0625,0 -0.453125,0.1875 -0.265625,-0.125 -0.609375,-0.1875 -1,-0.1875 -0.3125,0 -1.84375,0 -1.84375,1.3125 0,0.390625 0.203125,0.65625 0.40625,0.828125 0.390625,0.34375 0.78125,0.40625 1.546875,0.546875 0.359375,0.0625 1.09375,0.1875 1.09375,0.78125 0,0.75 -0.90625,0.75 -1.125,0.75 -1.0625,0 -1.3125,-0.734375 -1.4375,-1.15625 C 0.8125,-1.59375 0.75,-1.59375 0.625,-1.59375 c -0.25,0 -0.25,0.0625 -0.25,0.28125 l 0,1.09375 c 0,0.1875 0,0.28125 0.1875,0.28125 0.0625,0 0.078125,0 0.296875,-0.15625 0.015625,0 0.234375,-0.140625 0.25,-0.171875 0.46875,0.328125 0.984375,0.328125 1.1875,0.328125 0.3125,0 1.84375,0 1.84375,-1.453125 0,-0.4375 -0.203125,-0.78125 -0.546875,-1.0625 C 3.203125,-2.734375 2.875,-2.796875 2.109375,-2.9375 z m 0,0"
             style="stroke:none"
             inkscape:connector-curvature="0" />
        </symbol>
        <symbol
           id="textext-e01a9332-7"
           overflow="visible"
           style="overflow:visible">
          <path
             id="path4958"
             d="M 3.0625,2.140625 C 3.0625,2.09375 3.03125,2.0625 2.984375,2 1.828125,0.9375 1.46875,-0.671875 1.46875,-2.25 1.46875,-3.625 1.734375,-5.3125 3,-6.515625 3.046875,-6.5625 3.0625,-6.578125 3.0625,-6.625 c 0,-0.0625 -0.046875,-0.109375 -0.109375,-0.109375 -0.109375,0 -0.921875,0.65625 -1.40625,1.625 C 1.125,-4.25 0.90625,-3.3125 0.90625,-2.25 c 0,0.640625 0.078125,1.671875 0.578125,2.71875 0.53125,1.109375 1.359375,1.765625 1.46875,1.765625 0.0625,0 0.109375,-0.03125 0.109375,-0.09375 z m 0,0"
             style="stroke:none"
             inkscape:connector-curvature="0" />
        </symbol>
        <symbol
           id="textext-e01a9332-8"
           overflow="visible"
           style="overflow:visible">
          <path
             id="path4961"
             d="m 5.375,-6.09375 -5.03125,0 0,0.265625 0.203125,0 c 0.6875,0 0.703125,0.109375 0.703125,0.4375 l 0,4.6875 C 1.25,-0.375 1.234375,-0.28125 0.546875,-0.28125 l -0.203125,0 0,0.28125 c 0.40625,-0.03125 0.953125,-0.03125 1.375,-0.03125 0.359375,0 1.171875,0 1.484375,0.03125 l 0,-0.28125 -0.28125,0 c -0.828125,0 -0.859375,-0.109375 -0.859375,-0.4375 l 0,-2.203125 0.8125,0 c 0.859375,0 0.96875,0.296875 0.96875,1.0625 l 0.25,0 0,-2.390625 -0.25,0 c 0,0.765625 -0.109375,1.0625 -0.96875,1.0625 l -0.8125,0 0,-2.265625 c 0,-0.3125 0.015625,-0.375 0.4375,-0.375 l 1.125,0 c 1.375,0 1.609375,0.515625 1.75,1.75 l 0.25,0 z m 0,0"
             style="stroke:none"
             inkscape:connector-curvature="0" />
        </symbol>
        <symbol
           id="textext-e01a9332-9"
           overflow="visible"
           style="overflow:visible">
          <path
             id="path4964"
             d="m 1.65625,-6.21875 -1.328125,0.09375 0,0.28125 c 0.609375,0 0.6875,0.0625 0.6875,0.5 l 0,4.65625 c 0,0.40625 -0.09375,0.40625 -0.6875,0.40625 l 0,0.28125 c 0.421875,-0.015625 0.59375,-0.03125 1,-0.03125 C 1.75,-0.03125 1.90625,-0.015625 2.34375,0 l 0,-0.28125 c -0.59375,0 -0.6875,0 -0.6875,-0.40625 z m 0,0"
             style="stroke:none"
             inkscape:connector-curvature="0" />
        </symbol>
        <symbol
           id="textext-e01a9332-10"
           overflow="visible"
           style="overflow:visible">
          <path
             id="path4967"
             d="m 3.0625,-0.640625 c 0.046875,0.375 0.3125,0.6875 0.703125,0.6875 0.21875,0 0.78125,-0.125 0.78125,-0.84375 l 0,-0.5 -0.25,0 0,0.484375 c 0,0.109375 0,0.546875 -0.328125,0.546875 -0.3125,0 -0.3125,-0.421875 -0.3125,-0.5625 l 0,-1.578125 c 0,-0.515625 0,-0.8125 -0.40625,-1.1875 -0.328125,-0.296875 -0.765625,-0.421875 -1.21875,-0.421875 -0.75,0 -1.375,0.375 -1.375,0.953125 0,0.265625 0.1875,0.421875 0.421875,0.421875 0.234375,0 0.40625,-0.171875 0.40625,-0.40625 0,-0.390625 -0.390625,-0.4375 -0.40625,-0.4375 0.25,-0.234375 0.6875,-0.3125 0.9375,-0.3125 0.453125,0 0.96875,0.34375 0.96875,1.140625 l 0,0.28125 c -0.484375,0.03125 -1.15625,0.0625 -1.75,0.359375 -0.65625,0.3125 -0.84375,0.78125 -0.84375,1.140625 0,0.734375 0.859375,0.96875 1.46875,0.96875 0.734375,0 1.078125,-0.484375 1.203125,-0.734375 z m -0.078125,-0.625 c 0,0.875 -0.671875,1.140625 -1.0625,1.140625 -0.421875,0 -0.8125,-0.3125 -0.8125,-0.75 0,-0.59375 0.5,-1.21875 1.875,-1.28125 z m 0,0"
             style="stroke:none"
             inkscape:connector-curvature="0" />
        </symbol>
        <symbol
           id="textext-e01a9332-11"
           overflow="visible"
           style="overflow:visible">
          <path
             id="path4970"
             d="m 1.671875,-2.328125 c 0,-0.96875 0.703125,-1.40625 1.234375,-1.40625 0.5,0 0.65625,0.34375 0.65625,0.96875 l 0,2.078125 c 0,0.40625 -0.09375,0.40625 -0.6875,0.40625 L 2.875,0 c 0.421875,-0.015625 0.59375,-0.03125 1.015625,-0.03125 0.4375,0 0.546875,0.015625 1.03125,0.03125 l 0,-0.28125 c -0.59375,0 -0.703125,0 -0.703125,-0.40625 l 0,-1.640625 c 0,-0.96875 0.703125,-1.40625 1.25,-1.40625 0.484375,0 0.640625,0.34375 0.640625,0.96875 l 0,2.078125 c 0,0.40625 -0.09375,0.40625 -0.6875,0.40625 l 0,0.28125 C 5.84375,-0.015625 6.015625,-0.03125 6.453125,-0.03125 6.875,-0.03125 7,-0.015625 7.46875,0 l 0,-0.28125 c -0.453125,0 -0.671875,0 -0.6875,-0.28125 l 0,-1.71875 c 0,-0.78125 0,-1.03125 -0.296875,-1.359375 C 6.296875,-3.859375 5.9375,-3.96875 5.53125,-3.96875 4.875,-3.96875 4.4375,-3.59375 4.1875,-3.109375 4.078125,-3.640625 3.71875,-3.96875 2.96875,-3.96875 2.25,-3.96875 1.8125,-3.5 1.625,-3.078125 l -0.015625,0 0,-0.890625 -1.296875,0.109375 0,0.265625 C 0.921875,-3.59375 1,-3.53125 1,-3.078125 L 1,-0.6875 c 0,0.40625 -0.09375,0.40625 -0.6875,0.40625 L 0.3125,0 c 0.421875,-0.015625 0.59375,-0.03125 1.03125,-0.03125 0.421875,0 0.546875,0.015625 1.015625,0.03125 l 0,-0.28125 c -0.59375,0 -0.6875,0 -0.6875,-0.40625 z m 0,0"
             style="stroke:none"
             inkscape:connector-curvature="0" />
        </symbol>
        <symbol
           id="textext-e01a9332-12"
           overflow="visible"
           style="overflow:visible">
          <path
             id="path4973"
             d="m 3.59375,-2.046875 c 0.1875,0 0.234375,0 0.234375,-0.203125 0,-0.921875 -0.5,-1.765625 -1.65625,-1.765625 -1.0625,0 -1.90625,0.9375 -1.90625,2.046875 0,1.171875 0.9375,2.0625 2.03125,2.0625 1.09375,0 1.53125,-0.953125 1.53125,-1.15625 0,-0.0625 -0.046875,-0.125 -0.125,-0.125 -0.09375,0 -0.109375,0.0625 -0.125,0.109375 -0.296875,0.90625 -1.109375,0.921875 -1.234375,0.921875 -0.4375,0 -0.796875,-0.234375 -1,-0.546875 -0.296875,-0.4375 -0.3125,-0.96875 -0.3125,-1.34375 z m -2.546875,-0.21875 c 0.078125,-1.390625 0.875,-1.53125 1.125,-1.53125 0.5,0 1.03125,0.375 1.046875,1.53125 z m 0,0"
             style="stroke:none"
             inkscape:connector-curvature="0" />
        </symbol>
        <symbol
           id="textext-e01a9332-13"
           overflow="visible"
           style="overflow:visible">
          <path
             id="path4976"
             d="M 5.375,-5.296875 C 5.9375,-5.828125 6.5,-5.84375 6.640625,-5.84375 l 0,-0.28125 c -0.25,0.03125 -0.703125,0.03125 -0.796875,0.03125 -0.375,0 -0.703125,-0.015625 -1.109375,-0.03125 l 0,0.28125 c 0.25,0 0.390625,0.125 0.390625,0.296875 0,0.0625 -0.03125,0.140625 -0.078125,0.203125 l -2.984375,2.765625 0,-2.84375 C 2.0625,-5.75 2.078125,-5.84375 2.765625,-5.84375 l 0.21875,0 0,-0.28125 c -0.40625,0.03125 -0.90625,0.03125 -1.328125,0.03125 -0.40625,0 -0.90625,0 -1.3125,-0.03125 l 0,0.28125 0.203125,0 c 0.6875,0 0.703125,0.09375 0.703125,0.421875 l 0,4.71875 C 1.25,-0.375 1.234375,-0.28125 0.546875,-0.28125 l -0.203125,0 0,0.28125 C 0.75,-0.03125 1.25,-0.03125 1.65625,-0.03125 c 0.421875,0 0.921875,0 1.328125,0.03125 l 0,-0.28125 -0.21875,0 c -0.6875,0 -0.703125,-0.09375 -0.703125,-0.421875 l 0,-1.546875 1.09375,-1 1.671875,2.375 c 0.078125,0.109375 0.15625,0.234375 0.15625,0.34375 0,0.25 -0.34375,0.25 -0.515625,0.25 l 0,0.28125 c 0.40625,-0.03125 0.84375,-0.03125 1.25,-0.03125 0.234375,0 0.59375,0 1.046875,0.03125 l 0,-0.28125 c -0.5625,0 -0.6875,-0.078125 -0.96875,-0.484375 L 3.6875,-3.75 z m 0,0"
             style="stroke:none"
             inkscape:connector-curvature="0" />
        </symbol>
        <symbol
           id="textext-e01a9332-14"
           overflow="visible"
           style="overflow:visible">
          <path
             id="path4979"
             d="m 1.65625,-3.96875 -1.296875,0.109375 0,0.265625 c 0.578125,0 0.65625,0.0625 0.65625,0.5 l 0,2.40625 c 0,0.40625 -0.09375,0.40625 -0.6875,0.40625 l 0,0.28125 c 0.390625,-0.015625 0.59375,-0.03125 0.984375,-0.03125 0.140625,0 0.515625,0 0.953125,0.03125 l 0,-0.28125 c -0.578125,0 -0.609375,-0.046875 -0.609375,-0.390625 z m 0.015625,-1.5625 c 0,-0.265625 -0.203125,-0.484375 -0.484375,-0.484375 -0.265625,0 -0.484375,0.234375 -0.484375,0.484375 0,0.265625 0.21875,0.484375 0.484375,0.484375 0.28125,0 0.484375,-0.203125 0.484375,-0.484375 z m 0,0"
             style="stroke:none"
             inkscape:connector-curvature="0" />
        </symbol>
        <symbol
           id="textext-e01a9332-15"
           overflow="visible"
           style="overflow:visible">
          <path
             id="path4982"
             d="m 1.671875,-2.328125 c 0,-0.953125 0.671875,-1.40625 1.234375,-1.40625 0.53125,0 0.640625,0.4375 0.640625,0.96875 l 0,2.078125 c 0,0.40625 -0.09375,0.40625 -0.6875,0.40625 l 0,0.28125 C 3.28125,-0.015625 3.453125,-0.03125 3.890625,-0.03125 4.3125,-0.03125 4.4375,-0.015625 4.90625,0 l 0,-0.28125 c -0.453125,0 -0.6875,0 -0.6875,-0.28125 l 0,-1.71875 c 0,-0.734375 0,-1 -0.25,-1.3125 -0.203125,-0.25 -0.546875,-0.375 -1,-0.375 -0.828125,0 -1.21875,0.625 -1.34375,0.875 l -0.015625,0 0,-0.875 -1.296875,0.109375 0,0.265625 C 0.921875,-3.59375 1,-3.53125 1,-3.078125 L 1,-0.6875 c 0,0.40625 -0.09375,0.40625 -0.6875,0.40625 L 0.3125,0 c 0.421875,-0.015625 0.59375,-0.03125 1.03125,-0.03125 0.421875,0 0.546875,0.015625 1.015625,0.03125 l 0,-0.28125 c -0.59375,0 -0.6875,0 -0.6875,-0.40625 z m 0,0"
             style="stroke:none"
             inkscape:connector-curvature="0" />
        </symbol>
        <symbol
           id="textext-e01a9332-16"
           overflow="visible"
           style="overflow:visible">
          <path
             id="path4985"
             d="m 2.921875,-3.59375 0,-0.265625 -1.3125,0 0,-1.65625 -0.25,0 c 0,0.75 -0.3125,1.671875 -1.1875,1.703125 l 0,0.21875 0.78125,0 0,2.484375 c 0,1 0.71875,1.203125 1.203125,1.203125 0.59375,0 0.90625,-0.5625 0.90625,-1.203125 l 0,-0.515625 -0.25,0 0,0.484375 c 0,0.671875 -0.28125,0.984375 -0.59375,0.984375 -0.609375,0 -0.609375,-0.78125 -0.609375,-0.953125 l 0,-2.484375 z m 0,0"
             style="stroke:none"
             inkscape:connector-curvature="0" />
        </symbol>
        <symbol
           id="textext-e01a9332-17"
           overflow="visible"
           style="overflow:visible">
          <path
             id="path4988"
             d="m 3.265625,-3.53125 c -0.1875,0.046875 -0.375,0.171875 -0.375,0.421875 0,0.234375 0.1875,0.421875 0.421875,0.421875 0.234375,0 0.421875,-0.15625 0.421875,-0.4375 0,-0.546875 -0.625,-0.890625 -1.421875,-0.890625 -1.140625,0 -2,0.953125 -2,2.078125 0,1.15625 0.921875,2.03125 1.984375,2.03125 1.25,0 1.53125,-1.078125 1.53125,-1.15625 0,-0.109375 -0.09375,-0.109375 -0.125,-0.109375 -0.09375,0 -0.09375,0.015625 -0.15625,0.171875 -0.203125,0.609375 -0.703125,0.84375 -1.15625,0.84375 -0.578125,0 -1.3125,-0.46875 -1.3125,-1.796875 0,-1.390625 0.71875,-1.8125 1.25,-1.8125 0.125,0 0.609375,0.015625 0.9375,0.234375 z m 0,0"
             style="stroke:none"
             inkscape:connector-curvature="0" />
        </symbol>
        <symbol
           id="textext-e01a9332-18"
           overflow="visible"
           style="overflow:visible">
          <path
             id="path4991"
             d="m 3.078125,-3.78125 c 0,-0.15625 0,-0.234375 -0.09375,-0.234375 -0.046875,0 -0.0625,0 -0.1875,0.109375 -0.015625,0.015625 -0.09375,0.09375 -0.15625,0.140625 -0.265625,-0.203125 -0.546875,-0.25 -0.859375,-0.25 -1.1875,0 -1.46875,0.65625 -1.46875,1.109375 0,0.28125 0.125,0.515625 0.328125,0.71875 0.296875,0.28125 0.640625,0.34375 1.09375,0.421875 0.46875,0.09375 0.609375,0.109375 0.8125,0.265625 0.09375,0.078125 0.3125,0.25 0.3125,0.578125 0,0.796875 -0.90625,0.796875 -1.03125,0.796875 -0.90625,0 -1.140625,-0.765625 -1.25,-1.25 C 0.546875,-1.46875 0.53125,-1.515625 0.4375,-1.515625 c -0.125,0 -0.125,0.078125 -0.125,0.234375 l 0,1.140625 c 0,0.15625 0,0.234375 0.09375,0.234375 0.0625,0 0.0625,0 0.234375,-0.171875 0.03125,-0.0625 0.125,-0.171875 0.171875,-0.21875 0.375,0.375 0.796875,0.390625 1.015625,0.390625 C 2.9375,0.09375 3.3125,-0.546875 3.3125,-1.140625 3.3125,-1.546875 3.140625,-1.796875 2.9375,-2 2.640625,-2.296875 2.3125,-2.359375 1.65625,-2.484375 1.421875,-2.53125 0.765625,-2.640625 0.765625,-3.15625 c 0,-0.28125 0.203125,-0.671875 1.015625,-0.671875 0.96875,0 1.03125,0.75 1.046875,0.96875 0.015625,0.109375 0.015625,0.171875 0.125,0.171875 0.125,0 0.125,-0.0625 0.125,-0.234375 z m 0,0"
             style="stroke:none"
             inkscape:connector-curvature="0" />
        </symbol>
        <symbol
           id="textext-e01a9332-19"
           overflow="visible"
           style="overflow:visible">
          <path
             id="path4994"
             d="M 2.671875,-2.25 C 2.671875,-2.984375 2.5625,-3.96875 2.09375,-4.96875 1.5625,-6.078125 0.734375,-6.734375 0.625,-6.734375 c -0.09375,0 -0.109375,0.078125 -0.109375,0.109375 0,0.046875 0.015625,0.0625 0.078125,0.125 0.53125,0.46875 1.515625,1.6875 1.515625,4.25 0,1.28125 -0.234375,3.0625 -1.53125,4.28125 -0.015625,0.015625 -0.0625,0.0625 -0.0625,0.109375 0,0.015625 0.015625,0.09375 0.109375,0.09375 0.109375,0 0.921875,-0.640625 1.40625,-1.625 C 2.453125,-0.25 2.671875,-1.171875 2.671875,-2.25 z m 0,0"
             style="stroke:none"
             inkscape:connector-curvature="0" />
        </symbol>
      </g>
    </defs>
    <g
       id="textext-e01a9332-20">
      <g
         id="g4997"
         style="fill:#000000;fill-opacity:1">
        <use
           id="use4999"
           y="134.765"
           x="362.448"
           xlink:href="#textext-e01a9332-0"
           width="744.09448"
           height="1052.3622" />
        <use
           id="use5001"
           y="134.765"
           x="371.41434"
           xlink:href="#textext-e01a9332-1"
           width="744.09448"
           height="1052.3622" />
        <use
           id="use5003"
           y="134.765"
           x="376.66562"
           xlink:href="#textext-e01a9332-2"
           width="744.09448"
           height="1052.3622" />
        <use
           id="use5005"
           y="134.765"
           x="382.23471"
           xlink:href="#textext-e01a9332-3"
           width="744.09448"
           height="1052.3622" />
      </g>
      <g
         id="g5007"
         style="fill:#000000;fill-opacity:1">
        <use
           id="use5009"
           y="134.765"
           x="390.50568"
           xlink:href="#textext-e01a9332-4"
           width="744.09448"
           height="1052.3622" />
        <use
           id="use5011"
           y="134.765"
           x="399.09842"
           xlink:href="#textext-e01a9332-1"
           width="744.09448"
           height="1052.3622" />
        <use
           id="use5013"
           y="134.765"
           x="404.3497"
           xlink:href="#textext-e01a9332-5"
           width="744.09448"
           height="1052.3622" />
        <use
           id="use5015"
           y="134.765"
           x="407.53177"
           xlink:href="#textext-e01a9332-1"
           width="744.09448"
           height="1052.3622" />
        <use
           id="use5017"
           y="134.765"
           x="412.78305"
           xlink:href="#textext-e01a9332-2"
           width="744.09448"
           height="1052.3622" />
        <use
           id="use5019"
           y="134.765"
           x="418.35214"
           xlink:href="#textext-e01a9332-6"
           width="744.09448"
           height="1052.3622" />
        <use
           id="use5021"
           y="134.765"
           x="422.87115"
           xlink:href="#textext-e01a9332-1"
           width="744.09448"
           height="1052.3622" />
      </g>
      <g
         id="g5023"
         style="fill:#000000;fill-opacity:1">
        <use
           id="use5025"
           y="145.724"
           x="355.134"
           xlink:href="#textext-e01a9332-7"
           width="744.09448"
           height="1052.3622" />
        <use
           id="use5027"
           y="145.724"
           x="358.71786"
           xlink:href="#textext-e01a9332-8"
           width="744.09448"
           height="1052.3622" />
        <use
           id="use5029"
           y="145.724"
           x="364.73254"
           xlink:href="#textext-e01a9332-9"
           width="744.09448"
           height="1052.3622" />
        <use
           id="use5031"
           y="145.724"
           x="367.29245"
           xlink:href="#textext-e01a9332-10"
           width="744.09448"
           height="1052.3622" />
        <use
           id="use5033"
           y="145.724"
           x="371.90027"
           xlink:href="#textext-e01a9332-11"
           width="744.09448"
           height="1052.3622" />
        <use
           id="use5035"
           y="145.724"
           x="379.57999"
           xlink:href="#textext-e01a9332-12"
           width="744.09448"
           height="1052.3622" />
      </g>
      <g
         id="g5037"
         style="fill:#000000;fill-opacity:1">
        <use
           id="use5039"
           y="145.724"
           x="386.75491"
           xlink:href="#textext-e01a9332-13"
           width="744.09448"
           height="1052.3622" />
        <use
           id="use5041"
           y="145.724"
           x="393.92087"
           xlink:href="#textext-e01a9332-14"
           width="744.09448"
           height="1052.3622" />
        <use
           id="use5043"
           y="145.724"
           x="396.48077"
           xlink:href="#textext-e01a9332-15"
           width="744.09448"
           height="1052.3622" />
        <use
           id="use5045"
           y="145.724"
           x="401.60059"
           xlink:href="#textext-e01a9332-12"
           width="744.09448"
           height="1052.3622" />
        <use
           id="use5047"
           y="145.724"
           x="405.70001"
           xlink:href="#textext-e01a9332-11"
           width="744.09448"
           height="1052.3622" />
        <use
           id="use5049"
           y="145.724"
           x="413.37973"
           xlink:href="#textext-e01a9332-10"
           width="744.09448"
           height="1052.3622" />
      </g>
      <g
         id="g5051"
         style="fill:#000000;fill-opacity:1">
        <use
           id="use5053"
           y="145.724"
           x="417.97861"
           xlink:href="#textext-e01a9332-16"
           width="744.09448"
           height="1052.3622" />
        <use
           id="use5055"
           y="145.724"
           x="421.56247"
           xlink:href="#textext-e01a9332-14"
           width="744.09448"
           height="1052.3622" />
        <use
           id="use5057"
           y="145.724"
           x="424.12238"
           xlink:href="#textext-e01a9332-17"
           width="744.09448"
           height="1052.3622" />
        <use
           id="use5059"
           y="145.724"
           x="428.21823"
           xlink:href="#textext-e01a9332-18"
           width="744.09448"
           height="1052.3622" />
        <use
           id="use5061"
           y="145.724"
           x="431.85321"
           xlink:href="#textext-e01a9332-19"
           width="744.09448"
           height="1052.3622" />
      </g>
    </g>
  </g>
  <g
     id="g5781"
     transform="translate(-305.87728,-33.067815)"
     ns0:preamble=""
     ns0:text="\\begin{center}\n\\textbf{External\\\\\nDisturbances}\n\\end{center}">
    <defs
       id="defs5783">
      <g
         id="g5785">
        <symbol
           id="textext-e8da2a13-0"
           overflow="visible">
          <path
             id="path5788"
             d="M 7.203125 -2.734375 L 6.734375 -2.734375 C 6.515625 -1.359375 6.234375 -0.46875 4.390625 -0.46875 L 2.875 -0.46875 L 2.875 -3.28125 L 3.421875 -3.28125 C 4.390625 -3.28125 4.484375 -2.84375 4.484375 -2.109375 L 4.953125 -2.109375 L 4.953125 -4.921875 L 4.484375 -4.921875 C 4.484375 -4.171875 4.390625 -3.75 3.421875 -3.75 L 2.875 -3.75 L 2.875 -6.3125 L 4.390625 -6.3125 C 6 -6.3125 6.265625 -5.578125 6.421875 -4.375 L 6.890625 -4.375 L 6.578125 -6.78125 L 0.390625 -6.78125 L 0.390625 -6.3125 L 1.46875 -6.3125 L 1.46875 -0.46875 L 0.390625 -0.46875 L 0.390625 0 L 6.75 0 Z M 7.203125 -2.734375 "
             style="stroke:none;" />
        </symbol>
        <symbol
           id="textext-e8da2a13-1"
           overflow="visible">
          <path
             id="path5791"
             d="M 3.453125 -2.453125 L 4.609375 -3.75 C 4.75 -3.890625 4.8125 -3.953125 5.625 -3.953125 L 5.625 -4.421875 C 5.28125 -4.40625 4.765625 -4.390625 4.71875 -4.390625 C 4.46875 -4.390625 3.96875 -4.421875 3.6875 -4.421875 L 3.6875 -3.953125 C 3.828125 -3.953125 3.953125 -3.9375 4.0625 -3.875 C 4.03125 -3.8125 4.03125 -3.78125 3.984375 -3.75 L 3.15625 -2.8125 L 2.171875 -3.953125 L 2.578125 -3.953125 L 2.578125 -4.421875 C 2.3125 -4.421875 1.6875 -4.390625 1.359375 -4.390625 C 1.046875 -4.390625 0.59375 -4.421875 0.265625 -4.421875 L 0.265625 -3.953125 L 0.984375 -3.953125 L 2.53125 -2.125 L 1.21875 -0.65625 C 1.0625 -0.46875 0.703125 -0.46875 0.21875 -0.46875 L 0.21875 0 C 0.5625 -0.015625 1.09375 -0.03125 1.140625 -0.03125 C 1.390625 -0.03125 1.96875 -0.015625 2.15625 0 L 2.15625 -0.46875 C 1.984375 -0.46875 1.796875 -0.515625 1.796875 -0.578125 C 1.796875 -0.59375 1.796875 -0.59375 1.859375 -0.671875 L 2.828125 -1.765625 L 3.921875 -0.46875 L 3.53125 -0.46875 L 3.53125 0 C 3.796875 -0.015625 4.40625 -0.03125 4.734375 -0.03125 C 5.046875 -0.03125 5.5 -0.015625 5.828125 0 L 5.828125 -0.46875 L 5.125 -0.46875 Z M 3.453125 -2.453125 "
             style="stroke:none;" />
        </symbol>
        <symbol
           id="textext-e8da2a13-2"
           overflow="visible">
          <path
             id="path5794"
             d="M 1.03125 -3.953125 L 1.03125 -1.21875 C 1.03125 -0.15625 1.890625 0.0625 2.609375 0.0625 C 3.359375 0.0625 3.8125 -0.515625 3.8125 -1.234375 L 3.8125 -1.765625 L 3.34375 -1.765625 L 3.34375 -1.25 C 3.34375 -0.578125 3.015625 -0.34375 2.734375 -0.34375 C 2.15625 -0.34375 2.15625 -0.984375 2.15625 -1.203125 L 2.15625 -3.953125 L 3.625 -3.953125 L 3.625 -4.421875 L 2.15625 -4.421875 L 2.15625 -6.328125 L 1.6875 -6.328125 C 1.6875 -5.328125 1.203125 -4.34375 0.203125 -4.3125 L 0.203125 -3.953125 Z M 1.03125 -3.953125 "
             style="stroke:none;" />
        </symbol>
        <symbol
           id="textext-e8da2a13-3"
           overflow="visible">
          <path
             id="path5797"
             d="M 4.609375 -2.171875 C 4.828125 -2.171875 4.921875 -2.171875 4.921875 -2.4375 C 4.921875 -2.75 4.859375 -3.484375 4.359375 -3.984375 C 4 -4.34375 3.46875 -4.515625 2.78125 -4.515625 C 1.1875 -4.515625 0.3125 -3.484375 0.3125 -2.25 C 0.3125 -0.90625 1.3125 0.0625 2.921875 0.0625 C 4.5 0.0625 4.921875 -1 4.921875 -1.171875 C 4.921875 -1.34375 4.734375 -1.34375 4.6875 -1.34375 C 4.515625 -1.34375 4.5 -1.296875 4.4375 -1.140625 C 4.234375 -0.65625 3.65625 -0.34375 3.015625 -0.34375 C 1.609375 -0.34375 1.59375 -1.671875 1.59375 -2.171875 Z M 1.59375 -2.5 C 1.609375 -2.890625 1.625 -3.3125 1.828125 -3.640625 C 2.09375 -4.03125 2.5 -4.15625 2.78125 -4.15625 C 3.953125 -4.15625 3.96875 -2.84375 3.984375 -2.5 Z M 1.59375 -2.5 "
             style="stroke:none;" />
        </symbol>
        <symbol
           id="textext-e8da2a13-4"
           overflow="visible">
          <path
             id="path5800"
             d="M 2.03125 -3.359375 L 2.03125 -4.484375 L 0.375 -4.40625 L 0.375 -3.9375 C 0.984375 -3.9375 1.0625 -3.9375 1.0625 -3.546875 L 1.0625 -0.46875 L 0.375 -0.46875 L 0.375 0 C 0.71875 -0.015625 1.171875 -0.03125 1.625 -0.03125 C 2 -0.03125 2.640625 -0.03125 3 0 L 3 -0.46875 L 2.140625 -0.46875 L 2.140625 -2.21875 C 2.140625 -2.90625 2.375 -4.125 3.375 -4.125 C 3.375 -4.109375 3.1875 -3.953125 3.1875 -3.671875 C 3.1875 -3.265625 3.515625 -3.0625 3.796875 -3.0625 C 4.09375 -3.0625 4.40625 -3.265625 4.40625 -3.671875 C 4.40625 -4.203125 3.875 -4.484375 3.34375 -4.484375 C 2.65625 -4.484375 2.25 -3.984375 2.03125 -3.359375 Z M 2.03125 -3.359375 "
             style="stroke:none;" />
        </symbol>
        <symbol
           id="textext-e8da2a13-5"
           overflow="visible">
          <path
             id="path5803"
             d="M 1.140625 -3.546875 L 1.140625 -0.46875 L 0.453125 -0.46875 L 0.453125 0 C 0.734375 -0.015625 1.328125 -0.03125 1.703125 -0.03125 C 2.09375 -0.03125 2.6875 -0.015625 2.953125 0 L 2.953125 -0.46875 L 2.265625 -0.46875 L 2.265625 -2.546875 C 2.265625 -3.640625 3.125 -4.125 3.765625 -4.125 C 4.09375 -4.125 4.3125 -3.921875 4.3125 -3.15625 L 4.3125 -0.46875 L 3.625 -0.46875 L 3.625 0 C 3.890625 -0.015625 4.5 -0.03125 4.875 -0.03125 C 5.265625 -0.03125 5.859375 -0.015625 6.125 0 L 6.125 -0.46875 L 5.4375 -0.46875 L 5.4375 -3.046875 C 5.4375 -4.09375 4.90625 -4.484375 3.90625 -4.484375 C 2.953125 -4.484375 2.421875 -3.921875 2.15625 -3.40625 L 2.15625 -4.484375 L 0.453125 -4.40625 L 0.453125 -3.9375 C 1.0625 -3.9375 1.140625 -3.9375 1.140625 -3.546875 Z M 1.140625 -3.546875 "
             style="stroke:none;" />
        </symbol>
        <symbol
           id="textext-e8da2a13-6"
           overflow="visible">
          <path
             id="path5806"
             d="M 3.734375 -0.765625 C 3.734375 -0.453125 3.734375 0 4.765625 0 L 5.25 0 C 5.4375 0 5.5625 0 5.5625 -0.234375 C 5.5625 -0.46875 5.4375 -0.46875 5.296875 -0.46875 C 4.6875 -0.484375 4.6875 -0.609375 4.6875 -0.84375 L 4.6875 -2.984375 C 4.6875 -3.875 3.984375 -4.515625 2.5 -4.515625 C 1.9375 -4.515625 0.71875 -4.46875 0.71875 -3.59375 C 0.71875 -3.15625 1.0625 -2.96875 1.328125 -2.96875 C 1.640625 -2.96875 1.96875 -3.1875 1.96875 -3.59375 C 1.96875 -3.890625 1.78125 -4.0625 1.75 -4.09375 C 2.03125 -4.140625 2.34375 -4.15625 2.46875 -4.15625 C 3.203125 -4.15625 3.5625 -3.734375 3.5625 -2.984375 L 3.5625 -2.640625 C 2.84375 -2.609375 0.3125 -2.515625 0.3125 -1.078125 C 0.3125 -0.125 1.5625 0.0625 2.25 0.0625 C 3.046875 0.0625 3.515625 -0.34375 3.734375 -0.765625 Z M 3.5625 -2.328125 L 3.5625 -1.390625 C 3.5625 -0.421875 2.640625 -0.296875 2.390625 -0.296875 C 1.890625 -0.296875 1.484375 -0.640625 1.484375 -1.09375 C 1.484375 -2.15625 3.0625 -2.296875 3.5625 -2.328125 Z M 3.5625 -2.328125 "
             style="stroke:none;" />
        </symbol>
        <symbol
           id="textext-e8da2a13-7"
           overflow="visible">
          <path
             id="path5809"
             d="M 2.234375 -6.921875 L 0.46875 -6.84375 L 0.46875 -6.375 C 1.09375 -6.375 1.15625 -6.375 1.15625 -5.984375 L 1.15625 -0.46875 L 0.46875 -0.46875 L 0.46875 0 C 0.78125 -0.015625 1.265625 -0.03125 1.6875 -0.03125 C 2.125 -0.03125 2.578125 -0.015625 2.921875 0 L 2.921875 -0.46875 L 2.234375 -0.46875 Z M 2.234375 -6.921875 "
             style="stroke:none;" />
        </symbol>
        <symbol
           id="textext-e8da2a13-8"
           overflow="visible">
          <path
             id="path5812"
             d="M 1.46875 -6.375 L 1.46875 -0.46875 L 0.390625 -0.46875 L 0.390625 0 L 4.6875 0 C 6.65625 0 8.140625 -1.21875 8.140625 -3.359375 C 8.140625 -5.546875 6.65625 -6.84375 4.671875 -6.84375 L 0.390625 -6.84375 L 0.390625 -6.375 Z M 2.828125 -0.46875 L 2.828125 -6.375 L 4.28125 -6.375 C 4.9375 -6.375 5.765625 -6.1875 6.25 -5.484375 C 6.59375 -4.96875 6.671875 -4.296875 6.671875 -3.375 C 6.671875 -2.28125 6.5625 -1.75 6.234375 -1.3125 C 5.765625 -0.625 4.890625 -0.46875 4.28125 -0.46875 Z M 2.828125 -0.46875 "
             style="stroke:none;" />
        </symbol>
        <symbol
           id="textext-e8da2a13-9"
           overflow="visible">
          <path
             id="path5815"
             d="M 2.234375 -4.484375 L 0.5 -4.40625 L 0.5 -3.9375 C 1.09375 -3.9375 1.15625 -3.9375 1.15625 -3.546875 L 1.15625 -0.46875 L 0.46875 -0.46875 L 0.46875 0 C 0.78125 -0.015625 1.265625 -0.03125 1.6875 -0.03125 C 1.984375 -0.03125 2.5 -0.015625 2.84375 0 L 2.84375 -0.46875 L 2.234375 -0.46875 Z M 2.328125 -6.15625 C 2.328125 -6.59375 1.96875 -6.921875 1.5625 -6.921875 C 1.125 -6.921875 0.78125 -6.578125 0.78125 -6.15625 C 0.78125 -5.71875 1.125 -5.375 1.5625 -5.375 C 1.96875 -5.375 2.328125 -5.71875 2.328125 -6.15625 Z M 2.328125 -6.15625 "
             style="stroke:none;" />
        </symbol>
        <symbol
           id="textext-e8da2a13-10"
           overflow="visible">
          <path
             id="path5818"
             d="M 2.109375 -2.9375 C 1.734375 -3 1.09375 -3.109375 1.09375 -3.578125 C 1.09375 -4.203125 2.015625 -4.203125 2.203125 -4.203125 C 2.953125 -4.203125 3.328125 -3.90625 3.375 -3.359375 C 3.390625 -3.203125 3.40625 -3.15625 3.609375 -3.15625 C 3.84375 -3.15625 3.84375 -3.203125 3.84375 -3.4375 L 3.84375 -4.234375 C 3.84375 -4.421875 3.84375 -4.515625 3.671875 -4.515625 C 3.625 -4.515625 3.609375 -4.515625 3.21875 -4.328125 C 2.953125 -4.453125 2.609375 -4.515625 2.21875 -4.515625 C 1.90625 -4.515625 0.375 -4.515625 0.375 -3.203125 C 0.375 -2.8125 0.578125 -2.546875 0.78125 -2.375 C 1.171875 -2.03125 1.5625 -1.96875 2.328125 -1.828125 C 2.6875 -1.765625 3.421875 -1.640625 3.421875 -1.046875 C 3.421875 -0.296875 2.515625 -0.296875 2.296875 -0.296875 C 1.234375 -0.296875 0.984375 -1.03125 0.859375 -1.453125 C 0.8125 -1.59375 0.75 -1.59375 0.625 -1.59375 C 0.375 -1.59375 0.375 -1.53125 0.375 -1.3125 L 0.375 -0.21875 C 0.375 -0.03125 0.375 0.0625 0.5625 0.0625 C 0.625 0.0625 0.640625 0.0625 0.859375 -0.09375 C 0.875 -0.09375 1.09375 -0.234375 1.109375 -0.265625 C 1.578125 0.0625 2.09375 0.0625 2.296875 0.0625 C 2.609375 0.0625 4.140625 0.0625 4.140625 -1.390625 C 4.140625 -1.828125 3.9375 -2.171875 3.59375 -2.453125 C 3.203125 -2.734375 2.875 -2.796875 2.109375 -2.9375 Z M 2.109375 -2.9375 "
             style="stroke:none;" />
        </symbol>
        <symbol
           id="textext-e8da2a13-11"
           overflow="visible">
          <path
             id="path5821"
             d="M 4.359375 -0.71875 L 4.359375 0.0625 L 6.125 0 L 6.125 -0.46875 C 5.515625 -0.46875 5.4375 -0.46875 5.4375 -0.859375 L 5.4375 -4.484375 L 3.625 -4.40625 L 3.625 -3.9375 C 4.234375 -3.9375 4.3125 -3.9375 4.3125 -3.546875 L 4.3125 -1.640625 C 4.3125 -0.828125 3.796875 -0.296875 3.078125 -0.296875 C 2.296875 -0.296875 2.265625 -0.546875 2.265625 -1.09375 L 2.265625 -4.484375 L 0.453125 -4.40625 L 0.453125 -3.9375 C 1.0625 -3.9375 1.140625 -3.9375 1.140625 -3.546875 L 1.140625 -1.21875 C 1.140625 -0.15625 1.9375 0.0625 2.9375 0.0625 C 3.1875 0.0625 3.90625 0.0625 4.359375 -0.71875 Z M 4.359375 -0.71875 "
             style="stroke:none;" />
        </symbol>
        <symbol
           id="textext-e8da2a13-12"
           overflow="visible">
          <path
             id="path5824"
             d="M 2.140625 -4 L 2.140625 -6.921875 L 0.375 -6.84375 L 0.375 -6.375 C 0.984375 -6.375 1.0625 -6.375 1.0625 -5.984375 L 1.0625 0 L 1.53125 0 L 2.015625 -0.5625 C 2.09375 -0.484375 2.578125 0.0625 3.46875 0.0625 C 4.953125 0.0625 5.984375 -0.84375 5.984375 -2.21875 C 5.984375 -3.546875 5.046875 -4.484375 3.59375 -4.484375 C 2.875 -4.484375 2.375 -4.203125 2.140625 -4 Z M 2.1875 -0.984375 L 2.1875 -3.484375 C 2.46875 -3.84375 2.9375 -4.125 3.484375 -4.125 C 4.703125 -4.125 4.703125 -2.921875 4.703125 -2.21875 C 4.703125 -1.75 4.703125 -1.203125 4.453125 -0.8125 C 4.15625 -0.40625 3.703125 -0.296875 3.375 -0.296875 C 2.6875 -0.296875 2.296875 -0.84375 2.1875 -0.984375 Z M 2.1875 -0.984375 "
             style="stroke:none;" />
        </symbol>
        <symbol
           id="textext-e8da2a13-13"
           overflow="visible">
          <path
             id="path5827"
             d="M 3.59375 -4.0625 C 3.40625 -3.890625 3.390625 -3.6875 3.390625 -3.59375 C 3.390625 -3.15625 3.734375 -2.96875 4 -2.96875 C 4.3125 -2.96875 4.640625 -3.1875 4.640625 -3.59375 C 4.640625 -4.453125 3.484375 -4.515625 2.90625 -4.515625 C 1.109375 -4.515625 0.375 -3.375 0.375 -2.21875 C 0.375 -0.890625 1.3125 0.0625 2.84375 0.0625 C 4.46875 0.0625 4.765625 -1.09375 4.765625 -1.171875 C 4.765625 -1.3125 4.625 -1.3125 4.53125 -1.3125 C 4.34375 -1.3125 4.34375 -1.28125 4.28125 -1.15625 C 4.03125 -0.53125 3.546875 -0.34375 3.046875 -0.34375 C 1.65625 -0.34375 1.65625 -1.796875 1.65625 -2.265625 C 1.65625 -2.828125 1.65625 -4.109375 2.9375 -4.109375 C 3.296875 -4.109375 3.453125 -4.09375 3.59375 -4.0625 Z M 3.59375 -4.0625 "
             style="stroke:none;" />
        </symbol>
      </g>
    </defs>
    <g
       id="textext-e8da2a13-14">
      <g
         id="g5830"
         style="fill:rgb(0%,0%,0%);fill-opacity:1;">
        <use
           id="use5832"
           y="134.765"
           x="373.73"
           xlink:href="#textext-e8da2a13-0" />
        <use
           id="use5834"
           y="134.765"
           x="381.257741"
           xlink:href="#textext-e8da2a13-1" />
        <use
           id="use5836"
           y="134.765"
           x="387.304042"
           xlink:href="#textext-e8da2a13-2" />
        <use
           id="use5838"
           y="134.765"
           x="391.759317"
           xlink:href="#textext-e8da2a13-3" />
        <use
           id="use5840"
           y="134.765"
           x="397.010604"
           xlink:href="#textext-e8da2a13-4" />
        <use
           id="use5842"
           y="134.765"
           x="401.728891"
           xlink:href="#textext-e8da2a13-5" />
        <use
           id="use5844"
           y="134.765"
           x="408.093996"
           xlink:href="#textext-e8da2a13-6" />
        <use
           id="use5846"
           y="134.765"
           x="413.66309"
           xlink:href="#textext-e8da2a13-7" />
      </g>
      <g
         id="g5848"
         style="fill:rgb(0%,0%,0%);fill-opacity:1;">
        <use
           id="use5850"
           y="146.72"
           x="362.693"
           xlink:href="#textext-e8da2a13-8" />
        <use
           id="use5852"
           y="146.72"
           x="371.479017"
           xlink:href="#textext-e8da2a13-9" />
        <use
           id="use5854"
           y="146.72"
           x="374.661071"
           xlink:href="#textext-e8da2a13-10" />
        <use
           id="use5856"
           y="146.72"
           x="379.180107"
           xlink:href="#textext-e8da2a13-2" />
        <use
           id="use5858"
           y="146.72"
           x="383.635381"
           xlink:href="#textext-e8da2a13-11" />
        <use
           id="use5860"
           y="146.72"
           x="390.000487"
           xlink:href="#textext-e8da2a13-4" />
        <use
           id="use5862"
           y="146.72"
           x="394.718774"
           xlink:href="#textext-e8da2a13-12" />
        <use
           id="use5864"
           y="146.72"
           x="401.083879"
           xlink:href="#textext-e8da2a13-6" />
        <use
           id="use5866"
           y="146.72"
           x="406.652972"
           xlink:href="#textext-e8da2a13-5" />
        <use
           id="use5868"
           y="146.72"
           x="413.018078"
           xlink:href="#textext-e8da2a13-13" />
        <use
           id="use5870"
           y="146.72"
           x="418.109962"
           xlink:href="#textext-e8da2a13-3" />
        <use
           id="use5872"
           y="146.72"
           x="423.361249"
           xlink:href="#textext-e8da2a13-10" />
      </g>
    </g>
  </g>
  <g
     transform="translate(-135.55319,12.597456)"
     ns0:text="\\begin{center}\n\\textbf{Acoustics}\\\\\n\\small (Acoustic Waves)\n\\end{center}"
     ns0:preamble=""
     id="g6228">
    <defs
       id="defs6230">
      <g
         id="g6232">
        <symbol
           style="overflow:visible"
           overflow="visible"
           id="textext-3f6f1a1d-0">
          <path
             inkscape:connector-curvature="0"
             style="stroke:none"
             d="m 4.71875,-6.703125 c -0.109375,-0.25 -0.21875,-0.25 -0.390625,-0.25 -0.28125,0 -0.328125,0.078125 -0.390625,0.25 l -2.46875,6 C 1.40625,-0.546875 1.375,-0.46875 0.625,-0.46875 l -0.21875,0 0,0.46875 c 0.375,-0.015625 0.859375,-0.03125 1.171875,-0.03125 0.390625,0 0.9375,0 1.3125,0.03125 l 0,-0.46875 C 2.875,-0.46875 2,-0.46875 2,-0.59375 c 0,-0.015625 0.03125,-0.109375 0.046875,-0.125 l 0.5,-1.203125 2.671875,0 0.59375,1.453125 -0.953125,0 0,0.46875 C 5.25,-0.03125 6.1875,-0.03125 6.625,-0.03125 c 0.390625,0 1.265625,0 1.625,0.03125 l 0,-0.46875 -0.96875,0 z M 3.875,-5.15625 l 1.140625,2.765625 -2.28125,0 z m 0,0"
             id="path6235" />
        </symbol>
        <symbol
           style="overflow:visible"
           overflow="visible"
           id="textext-3f6f1a1d-1">
          <path
             inkscape:connector-curvature="0"
             style="stroke:none"
             d="m 3.59375,-4.0625 c -0.1875,0.171875 -0.203125,0.375 -0.203125,0.46875 0,0.4375 0.34375,0.625 0.609375,0.625 0.3125,0 0.640625,-0.21875 0.640625,-0.625 0,-0.859375 -1.15625,-0.921875 -1.734375,-0.921875 -1.796875,0 -2.53125,1.140625 -2.53125,2.296875 0,1.328125 0.9375,2.28125 2.46875,2.28125 1.625,0 1.921875,-1.15625 1.921875,-1.234375 C 4.765625,-1.3125 4.625,-1.3125 4.53125,-1.3125 c -0.1875,0 -0.1875,0.03125 -0.25,0.15625 -0.25,0.625 -0.734375,0.8125 -1.234375,0.8125 -1.390625,0 -1.390625,-1.453125 -1.390625,-1.921875 0,-0.5625 0,-1.84375 1.28125,-1.84375 0.359375,0 0.515625,0.015625 0.65625,0.046875 z m 0,0"
             id="path6238" />
        </symbol>
        <symbol
           style="overflow:visible"
           overflow="visible"
           id="textext-3f6f1a1d-2">
          <path
             inkscape:connector-curvature="0"
             style="stroke:none"
             d="m 5.40625,-2.171875 c 0,-1.34375 -0.921875,-2.34375 -2.546875,-2.34375 -1.640625,0 -2.546875,1.015625 -2.546875,2.34375 0,1.234375 0.890625,2.234375 2.546875,2.234375 1.671875,0 2.546875,-1.015625 2.546875,-2.234375 z M 2.859375,-0.34375 c -1.265625,0 -1.265625,-1.078125 -1.265625,-1.9375 0,-0.453125 0,-0.953125 0.171875,-1.296875 0.1875,-0.375 0.609375,-0.578125 1.09375,-0.578125 0.421875,0 0.84375,0.15625 1.0625,0.5 C 4.125,-3.3125 4.125,-2.765625 4.125,-2.28125 c 0,0.859375 0,1.9375 -1.265625,1.9375 z m 0,0"
             id="path6241" />
        </symbol>
        <symbol
           style="overflow:visible"
           overflow="visible"
           id="textext-3f6f1a1d-3">
          <path
             inkscape:connector-curvature="0"
             style="stroke:none"
             d="m 4.359375,-0.71875 0,0.78125 L 6.125,0 l 0,-0.46875 c -0.609375,0 -0.6875,0 -0.6875,-0.390625 l 0,-3.625 -1.8125,0.078125 0,0.46875 c 0.609375,0 0.6875,0 0.6875,0.390625 l 0,1.90625 c 0,0.8125 -0.515625,1.34375 -1.234375,1.34375 -0.78125,0 -0.8125,-0.25 -0.8125,-0.796875 l 0,-3.390625 -1.8125,0.078125 0,0.46875 c 0.609375,0 0.6875,0 0.6875,0.390625 l 0,2.328125 c 0,1.0625 0.796875,1.28125 1.796875,1.28125 0.25,0 0.96875,0 1.421875,-0.78125 z m 0,0"
             id="path6244" />
        </symbol>
        <symbol
           style="overflow:visible"
           overflow="visible"
           id="textext-3f6f1a1d-4">
          <path
             inkscape:connector-curvature="0"
             style="stroke:none"
             d="M 2.109375,-2.9375 C 1.734375,-3 1.09375,-3.109375 1.09375,-3.578125 c 0,-0.625 0.921875,-0.625 1.109375,-0.625 0.75,0 1.125,0.296875 1.171875,0.84375 0.015625,0.15625 0.03125,0.203125 0.234375,0.203125 0.234375,0 0.234375,-0.046875 0.234375,-0.28125 l 0,-0.796875 c 0,-0.1875 0,-0.28125 -0.171875,-0.28125 -0.046875,0 -0.0625,0 -0.453125,0.1875 -0.265625,-0.125 -0.609375,-0.1875 -1,-0.1875 -0.3125,0 -1.84375,0 -1.84375,1.3125 0,0.390625 0.203125,0.65625 0.40625,0.828125 0.390625,0.34375 0.78125,0.40625 1.546875,0.546875 0.359375,0.0625 1.09375,0.1875 1.09375,0.78125 0,0.75 -0.90625,0.75 -1.125,0.75 -1.0625,0 -1.3125,-0.734375 -1.4375,-1.15625 C 0.8125,-1.59375 0.75,-1.59375 0.625,-1.59375 c -0.25,0 -0.25,0.0625 -0.25,0.28125 l 0,1.09375 c 0,0.1875 0,0.28125 0.1875,0.28125 0.0625,0 0.078125,0 0.296875,-0.15625 0.015625,0 0.234375,-0.140625 0.25,-0.171875 0.46875,0.328125 0.984375,0.328125 1.1875,0.328125 0.3125,0 1.84375,0 1.84375,-1.453125 0,-0.4375 -0.203125,-0.78125 -0.546875,-1.0625 C 3.203125,-2.734375 2.875,-2.796875 2.109375,-2.9375 z m 0,0"
             id="path6247" />
        </symbol>
        <symbol
           style="overflow:visible"
           overflow="visible"
           id="textext-3f6f1a1d-5">
          <path
             inkscape:connector-curvature="0"
             style="stroke:none"
             d="m 1.03125,-3.953125 0,2.734375 c 0,1.0625 0.859375,1.28125 1.578125,1.28125 0.75,0 1.203125,-0.578125 1.203125,-1.296875 l 0,-0.53125 -0.46875,0 0,0.515625 c 0,0.671875 -0.328125,0.90625 -0.609375,0.90625 -0.578125,0 -0.578125,-0.640625 -0.578125,-0.859375 l 0,-2.75 1.46875,0 0,-0.46875 -1.46875,0 0,-1.90625 -0.46875,0 c 0,1 -0.484375,1.984375 -1.484375,2.015625 l 0,0.359375 z m 0,0"
             id="path6250" />
        </symbol>
        <symbol
           style="overflow:visible"
           overflow="visible"
           id="textext-3f6f1a1d-6">
          <path
             inkscape:connector-curvature="0"
             style="stroke:none"
             d="M 2.234375,-4.484375 0.5,-4.40625 l 0,0.46875 c 0.59375,0 0.65625,0 0.65625,0.390625 l 0,3.078125 -0.6875,0 0,0.46875 C 0.78125,-0.015625 1.265625,-0.03125 1.6875,-0.03125 1.984375,-0.03125 2.5,-0.015625 2.84375,0 l 0,-0.46875 -0.609375,0 z m 0.09375,-1.671875 c 0,-0.4375 -0.359375,-0.765625 -0.765625,-0.765625 -0.4375,0 -0.78125,0.34375 -0.78125,0.765625 0,0.4375 0.34375,0.78125 0.78125,0.78125 0.40625,0 0.765625,-0.34375 0.765625,-0.78125 z m 0,0"
             id="path6253" />
        </symbol>
        <symbol
           style="overflow:visible"
           overflow="visible"
           id="textext-3f6f1a1d-7">
          <path
             inkscape:connector-curvature="0"
             style="stroke:none"
             d="M 3.0625,2.140625 C 3.0625,2.09375 3.03125,2.0625 2.984375,2 1.828125,0.9375 1.46875,-0.671875 1.46875,-2.25 1.46875,-3.625 1.734375,-5.3125 3,-6.515625 3.046875,-6.5625 3.0625,-6.578125 3.0625,-6.625 c 0,-0.0625 -0.046875,-0.109375 -0.109375,-0.109375 -0.109375,0 -0.921875,0.65625 -1.40625,1.625 C 1.125,-4.25 0.90625,-3.3125 0.90625,-2.25 c 0,0.640625 0.078125,1.671875 0.578125,2.71875 0.53125,1.109375 1.359375,1.765625 1.46875,1.765625 0.0625,0 0.109375,-0.03125 0.109375,-0.09375 z m 0,0"
             id="path6256" />
        </symbol>
        <symbol
           style="overflow:visible"
           overflow="visible"
           id="textext-3f6f1a1d-8">
          <path
             inkscape:connector-curvature="0"
             style="stroke:none"
             d="M 3.671875,-6.234375 C 3.625,-6.34375 3.59375,-6.421875 3.453125,-6.421875 c -0.140625,0 -0.15625,0.046875 -0.21875,0.203125 L 1.3125,-0.890625 C 1.203125,-0.59375 1,-0.28125 0.3125,-0.28125 L 0.3125,0 c 0.328125,-0.03125 0.578125,-0.03125 0.90625,-0.03125 0.3125,0 0.515625,0.015625 1.015625,0.03125 l 0,-0.28125 c -0.515625,0 -0.671875,-0.28125 -0.671875,-0.453125 0,-0.078125 0.03125,-0.125 0.046875,-0.171875 l 0.421875,-1.15625 2.3125,0 0.484375,1.359375 C 4.875,-0.625 4.875,-0.59375 4.875,-0.546875 c 0,0.265625 -0.5,0.265625 -0.734375,0.265625 l 0,0.28125 c 0.40625,-0.03125 0.875,-0.03125 1.28125,-0.03125 0.40625,0 0.4375,0 1.171875,0.03125 l 0,-0.28125 -0.140625,0 c -0.5625,0 -0.65625,-0.078125 -0.75,-0.328125 z M 4.25,-2.34375 l -2.125,0 1.0625,-2.9375 z m 0,0"
             id="path6259" />
        </symbol>
        <symbol
           style="overflow:visible"
           overflow="visible"
           id="textext-3f6f1a1d-9">
          <path
             inkscape:connector-curvature="0"
             style="stroke:none"
             d="m 3.265625,-3.53125 c -0.1875,0.046875 -0.375,0.171875 -0.375,0.421875 0,0.234375 0.1875,0.421875 0.421875,0.421875 0.234375,0 0.421875,-0.15625 0.421875,-0.4375 0,-0.546875 -0.625,-0.890625 -1.421875,-0.890625 -1.140625,0 -2,0.953125 -2,2.078125 0,1.15625 0.921875,2.03125 1.984375,2.03125 1.25,0 1.53125,-1.078125 1.53125,-1.15625 0,-0.109375 -0.09375,-0.109375 -0.125,-0.109375 -0.09375,0 -0.09375,0.015625 -0.15625,0.171875 -0.203125,0.609375 -0.703125,0.84375 -1.15625,0.84375 -0.578125,0 -1.3125,-0.46875 -1.3125,-1.796875 0,-1.390625 0.71875,-1.8125 1.25,-1.8125 0.125,0 0.609375,0.015625 0.9375,0.234375 z m 0,0"
             id="path6262" />
        </symbol>
        <symbol
           style="overflow:visible"
           overflow="visible"
           id="textext-3f6f1a1d-10">
          <path
             inkscape:connector-curvature="0"
             style="stroke:none"
             d="m 4.34375,-1.90625 c 0,-1.171875 -0.9375,-2.109375 -2.03125,-2.109375 -1.140625,0 -2.046875,0.953125 -2.046875,2.109375 0,1.109375 0.921875,2 2.03125,2 1.140625,0 2.046875,-0.90625 2.046875,-2 z m -2.03125,1.75 c -0.453125,0 -0.828125,-0.21875 -1.03125,-0.5625 -0.234375,-0.390625 -0.25,-0.859375 -0.25,-1.265625 0,-0.34375 0,-0.84375 0.21875,-1.21875 0.28125,-0.453125 0.71875,-0.59375 1.046875,-0.59375 0.515625,0 0.875,0.296875 1.0625,0.59375 0.203125,0.375 0.203125,0.828125 0.203125,1.21875 0,0.328125 0,0.84375 -0.21875,1.234375 -0.25,0.421875 -0.65625,0.59375 -1.03125,0.59375 z m 0,0"
             id="path6265" />
        </symbol>
        <symbol
           style="overflow:visible"
           overflow="visible"
           id="textext-3f6f1a1d-11">
          <path
             inkscape:connector-curvature="0"
             style="stroke:none"
             d="m 3.546875,-1.5 c 0,0.796875 -0.4375,1.375 -1.09375,1.375 -0.734375,0 -0.78125,-0.390625 -0.78125,-0.875 l 0,-2.96875 -1.359375,0.109375 0,0.265625 C 1,-3.59375 1,-3.5625 1,-2.765625 l 0,1.34375 c 0,0.59375 0,0.96875 0.421875,1.28125 0.25,0.171875 0.625,0.234375 0.984375,0.234375 0.46875,0 0.90625,-0.203125 1.15625,-0.734375 l 0.015625,0 0,0.734375 L 4.90625,0 l 0,-0.28125 c -0.609375,0 -0.6875,-0.0625 -0.6875,-0.5 l 0,-3.1875 -1.359375,0.109375 0,0.265625 c 0.609375,0 0.6875,0.0625 0.6875,0.515625 z m 0,0"
             id="path6268" />
        </symbol>
        <symbol
           style="overflow:visible"
           overflow="visible"
           id="textext-3f6f1a1d-12">
          <path
             inkscape:connector-curvature="0"
             style="stroke:none"
             d="m 3.078125,-3.78125 c 0,-0.15625 0,-0.234375 -0.09375,-0.234375 -0.046875,0 -0.0625,0 -0.1875,0.109375 -0.015625,0.015625 -0.09375,0.09375 -0.15625,0.140625 -0.265625,-0.203125 -0.546875,-0.25 -0.859375,-0.25 -1.1875,0 -1.46875,0.65625 -1.46875,1.109375 0,0.28125 0.125,0.515625 0.328125,0.71875 0.296875,0.28125 0.640625,0.34375 1.09375,0.421875 0.46875,0.09375 0.609375,0.109375 0.8125,0.265625 0.09375,0.078125 0.3125,0.25 0.3125,0.578125 0,0.796875 -0.90625,0.796875 -1.03125,0.796875 -0.90625,0 -1.140625,-0.765625 -1.25,-1.25 C 0.546875,-1.46875 0.53125,-1.515625 0.4375,-1.515625 c -0.125,0 -0.125,0.078125 -0.125,0.234375 l 0,1.140625 c 0,0.15625 0,0.234375 0.09375,0.234375 0.0625,0 0.0625,0 0.234375,-0.171875 0.03125,-0.0625 0.125,-0.171875 0.171875,-0.21875 0.375,0.375 0.796875,0.390625 1.015625,0.390625 C 2.9375,0.09375 3.3125,-0.546875 3.3125,-1.140625 3.3125,-1.546875 3.140625,-1.796875 2.9375,-2 2.640625,-2.296875 2.3125,-2.359375 1.65625,-2.484375 1.421875,-2.53125 0.765625,-2.640625 0.765625,-3.15625 c 0,-0.28125 0.203125,-0.671875 1.015625,-0.671875 0.96875,0 1.03125,0.75 1.046875,0.96875 0.015625,0.109375 0.015625,0.171875 0.125,0.171875 0.125,0 0.125,-0.0625 0.125,-0.234375 z m 0,0"
             id="path6271" />
        </symbol>
        <symbol
           style="overflow:visible"
           overflow="visible"
           id="textext-3f6f1a1d-13">
          <path
             inkscape:connector-curvature="0"
             style="stroke:none"
             d="m 2.921875,-3.59375 0,-0.265625 -1.3125,0 0,-1.65625 -0.25,0 c 0,0.75 -0.3125,1.671875 -1.1875,1.703125 l 0,0.21875 0.78125,0 0,2.484375 c 0,1 0.71875,1.203125 1.203125,1.203125 0.59375,0 0.90625,-0.5625 0.90625,-1.203125 l 0,-0.515625 -0.25,0 0,0.484375 c 0,0.671875 -0.28125,0.984375 -0.59375,0.984375 -0.609375,0 -0.609375,-0.78125 -0.609375,-0.953125 l 0,-2.484375 z m 0,0"
             id="path6274" />
        </symbol>
        <symbol
           style="overflow:visible"
           overflow="visible"
           id="textext-3f6f1a1d-14">
          <path
             inkscape:connector-curvature="0"
             style="stroke:none"
             d="m 1.65625,-3.96875 -1.296875,0.109375 0,0.265625 c 0.578125,0 0.65625,0.0625 0.65625,0.5 l 0,2.40625 c 0,0.40625 -0.09375,0.40625 -0.6875,0.40625 l 0,0.28125 c 0.390625,-0.015625 0.59375,-0.03125 0.984375,-0.03125 0.140625,0 0.515625,0 0.953125,0.03125 l 0,-0.28125 c -0.578125,0 -0.609375,-0.046875 -0.609375,-0.390625 z m 0.015625,-1.5625 c 0,-0.265625 -0.203125,-0.484375 -0.484375,-0.484375 -0.265625,0 -0.484375,0.234375 -0.484375,0.484375 0,0.265625 0.21875,0.484375 0.484375,0.484375 0.28125,0 0.484375,-0.203125 0.484375,-0.484375 z m 0,0"
             id="path6277" />
        </symbol>
        <symbol
           style="overflow:visible"
           overflow="visible"
           id="textext-3f6f1a1d-15">
          <path
             inkscape:connector-curvature="0"
             style="stroke:none"
             d="M 6.734375,-1.03125 5.25,-5.4375 c 0,-0.03125 -0.03125,-0.09375 -0.03125,-0.125 0,-0.28125 0.515625,-0.28125 0.75,-0.28125 l 0,-0.28125 c -0.40625,0.03125 -0.84375,0.03125 -1.25,0.03125 -0.5,0 -0.5625,0 -1.109375,-0.03125 l 0,0.28125 c 0.453125,0 0.625,0.015625 0.71875,0.171875 0.078125,0.109375 0.265625,0.71875 0.265625,0.71875 0,0.015625 -0.03125,0.09375 -0.03125,0.125 l -1.265625,3.796875 -1.46875,-4.375 C 1.78125,-5.53125 1.78125,-5.546875 1.78125,-5.5625 c 0,-0.28125 0.515625,-0.28125 0.75,-0.28125 l 0,-0.28125 c -0.390625,0.03125 -0.84375,0.03125 -1.25,0.03125 -0.484375,0 -0.5625,0 -1.109375,-0.03125 l 0,0.28125 c 0.515625,0 0.6875,0 0.8125,0.34375 L 2.8125,0.015625 c 0.046875,0.125 0.09375,0.1875 0.203125,0.1875 0.0625,0 0.140625,-0.03125 0.1875,-0.1875 L 4.734375,-4.5625 6.25,-0.015625 c 0.0625,0.15625 0.078125,0.21875 0.203125,0.21875 0.109375,0 0.140625,-0.0625 0.1875,-0.1875 l 1.75,-5.21875 c 0.125,-0.40625 0.375,-0.640625 0.90625,-0.640625 l 0,-0.28125 c -0.28125,0.03125 -0.5625,0.03125 -0.84375,0.03125 -0.296875,0 -0.546875,-0.015625 -1.0625,-0.03125 l 0,0.28125 c 0.5625,0 0.765625,0.28125 0.765625,0.484375 0,0.046875 -0.015625,0.078125 -0.03125,0.140625 z m 0,0"
             id="path6280" />
        </symbol>
        <symbol
           style="overflow:visible"
           overflow="visible"
           id="textext-3f6f1a1d-16">
          <path
             inkscape:connector-curvature="0"
             style="stroke:none"
             d="m 3.0625,-0.640625 c 0.046875,0.375 0.3125,0.6875 0.703125,0.6875 0.21875,0 0.78125,-0.125 0.78125,-0.84375 l 0,-0.5 -0.25,0 0,0.484375 c 0,0.109375 0,0.546875 -0.328125,0.546875 -0.3125,0 -0.3125,-0.421875 -0.3125,-0.5625 l 0,-1.578125 c 0,-0.515625 0,-0.8125 -0.40625,-1.1875 -0.328125,-0.296875 -0.765625,-0.421875 -1.21875,-0.421875 -0.75,0 -1.375,0.375 -1.375,0.953125 0,0.265625 0.1875,0.421875 0.421875,0.421875 0.234375,0 0.40625,-0.171875 0.40625,-0.40625 0,-0.390625 -0.390625,-0.4375 -0.40625,-0.4375 0.25,-0.234375 0.6875,-0.3125 0.9375,-0.3125 0.453125,0 0.96875,0.34375 0.96875,1.140625 l 0,0.28125 c -0.484375,0.03125 -1.15625,0.0625 -1.75,0.359375 -0.65625,0.3125 -0.84375,0.78125 -0.84375,1.140625 0,0.734375 0.859375,0.96875 1.46875,0.96875 0.734375,0 1.078125,-0.484375 1.203125,-0.734375 z m -0.078125,-0.625 c 0,0.875 -0.671875,1.140625 -1.0625,1.140625 -0.421875,0 -0.8125,-0.3125 -0.8125,-0.75 0,-0.59375 0.5,-1.21875 1.875,-1.28125 z m 0,0"
             id="path6283" />
        </symbol>
        <symbol
           style="overflow:visible"
           overflow="visible"
           id="textext-3f6f1a1d-17">
          <path
             inkscape:connector-curvature="0"
             style="stroke:none"
             d="M 1.609375,-3.1875 C 1.59375,-3.234375 1.5625,-3.296875 1.5625,-3.359375 c 0,-0.234375 0.328125,-0.234375 0.5,-0.234375 l 0,-0.265625 C 1.671875,-3.84375 1.46875,-3.84375 1.078125,-3.84375 c -0.3125,0 -0.578125,0 -0.90625,-0.015625 l 0,0.265625 c 0.421875,0 0.59375,0 0.734375,0.34375 l 1.3125,3.171875 c 0.046875,0.15625 0.125,0.171875 0.203125,0.171875 0.078125,0 0.15625,-0.015625 0.21875,-0.171875 l 1.21875,-2.9375 c 0.1875,-0.453125 0.5,-0.5625 0.8125,-0.578125 l 0,-0.265625 C 4.40625,-3.84375 4,-3.84375 3.984375,-3.84375 c -0.25,0 -0.53125,0 -0.78125,-0.015625 l 0,0.265625 c 0.265625,0.03125 0.40625,0.15625 0.40625,0.390625 0,0.09375 0,0.109375 -0.046875,0.203125 l -0.921875,2.265625 z m 0,0"
             id="path6286" />
        </symbol>
        <symbol
           style="overflow:visible"
           overflow="visible"
           id="textext-3f6f1a1d-18">
          <path
             inkscape:connector-curvature="0"
             style="stroke:none"
             d="m 3.59375,-2.046875 c 0.1875,0 0.234375,0 0.234375,-0.203125 0,-0.921875 -0.5,-1.765625 -1.65625,-1.765625 -1.0625,0 -1.90625,0.9375 -1.90625,2.046875 0,1.171875 0.9375,2.0625 2.03125,2.0625 1.09375,0 1.53125,-0.953125 1.53125,-1.15625 0,-0.0625 -0.046875,-0.125 -0.125,-0.125 -0.09375,0 -0.109375,0.0625 -0.125,0.109375 -0.296875,0.90625 -1.109375,0.921875 -1.234375,0.921875 -0.4375,0 -0.796875,-0.234375 -1,-0.546875 -0.296875,-0.4375 -0.3125,-0.96875 -0.3125,-1.34375 z m -2.546875,-0.21875 c 0.078125,-1.390625 0.875,-1.53125 1.125,-1.53125 0.5,0 1.03125,0.375 1.046875,1.53125 z m 0,0"
             id="path6289" />
        </symbol>
        <symbol
           style="overflow:visible"
           overflow="visible"
           id="textext-3f6f1a1d-19">
          <path
             inkscape:connector-curvature="0"
             style="stroke:none"
             d="M 2.671875,-2.25 C 2.671875,-2.984375 2.5625,-3.96875 2.09375,-4.96875 1.5625,-6.078125 0.734375,-6.734375 0.625,-6.734375 c -0.09375,0 -0.109375,0.078125 -0.109375,0.109375 0,0.046875 0.015625,0.0625 0.078125,0.125 0.53125,0.46875 1.515625,1.6875 1.515625,4.25 0,1.28125 -0.234375,3.0625 -1.53125,4.28125 -0.015625,0.015625 -0.0625,0.0625 -0.0625,0.109375 0,0.015625 0.015625,0.09375 0.109375,0.09375 0.109375,0 0.921875,-0.640625 1.40625,-1.625 C 2.453125,-0.25 2.671875,-1.171875 2.671875,-2.25 z m 0,0"
             id="path6292" />
        </symbol>
      </g>
    </defs>
    <g
       id="textext-3f6f1a1d-20">
      <g
         style="fill:#000000;fill-opacity:1"
         id="g6295">
        <use
           height="1052.3622"
           width="744.09448"
           xlink:href="#textext-3f6f1a1d-0"
           x="371.48001"
           y="134.765"
           id="use6297" />
        <use
           height="1052.3622"
           width="744.09448"
           xlink:href="#textext-3f6f1a1d-1"
           x="380.14148"
           y="134.765"
           id="use6299" />
        <use
           height="1052.3622"
           width="744.09448"
           xlink:href="#textext-3f6f1a1d-2"
           x="385.23337"
           y="134.765"
           id="use6301" />
        <use
           height="1052.3622"
           width="744.09448"
           xlink:href="#textext-3f6f1a1d-3"
           x="390.96185"
           y="134.765"
           id="use6303" />
        <use
           height="1052.3622"
           width="744.09448"
           xlink:href="#textext-3f6f1a1d-4"
           x="397.32697"
           y="134.765"
           id="use6305" />
        <use
           height="1052.3622"
           width="744.09448"
           xlink:href="#textext-3f6f1a1d-5"
           x="401.84601"
           y="134.765"
           id="use6307" />
        <use
           height="1052.3622"
           width="744.09448"
           xlink:href="#textext-3f6f1a1d-6"
           x="406.30127"
           y="134.765"
           id="use6309" />
        <use
           height="1052.3622"
           width="744.09448"
           xlink:href="#textext-3f6f1a1d-1"
           x="409.48334"
           y="134.765"
           id="use6311" />
        <use
           height="1052.3622"
           width="744.09448"
           xlink:href="#textext-3f6f1a1d-4"
           x="414.57523"
           y="134.765"
           id="use6313" />
      </g>
      <g
         style="fill:#000000;fill-opacity:1"
         id="g6315">
        <use
           height="1052.3622"
           width="744.09448"
           xlink:href="#textext-3f6f1a1d-7"
           x="360.16599"
           y="145.724"
           id="use6317" />
        <use
           height="1052.3622"
           width="744.09448"
           xlink:href="#textext-3f6f1a1d-8"
           x="363.74988"
           y="145.724"
           id="use6319" />
        <use
           height="1052.3622"
           width="744.09448"
           xlink:href="#textext-3f6f1a1d-9"
           x="370.66028"
           y="145.724"
           id="use6321" />
        <use
           height="1052.3622"
           width="744.09448"
           xlink:href="#textext-3f6f1a1d-10"
           x="374.75613"
           y="145.724"
           id="use6323" />
        <use
           height="1052.3622"
           width="744.09448"
           xlink:href="#textext-3f6f1a1d-11"
           x="379.36395"
           y="145.724"
           id="use6325" />
        <use
           height="1052.3622"
           width="744.09448"
           xlink:href="#textext-3f6f1a1d-12"
           x="384.48376"
           y="145.724"
           id="use6327" />
        <use
           height="1052.3622"
           width="744.09448"
           xlink:href="#textext-3f6f1a1d-13"
           x="388.11874"
           y="145.724"
           id="use6329" />
        <use
           height="1052.3622"
           width="744.09448"
           xlink:href="#textext-3f6f1a1d-14"
           x="391.70264"
           y="145.724"
           id="use6331" />
        <use
           height="1052.3622"
           width="744.09448"
           xlink:href="#textext-3f6f1a1d-9"
           x="394.26254"
           y="145.724"
           id="use6333" />
      </g>
      <g
         style="fill:#000000;fill-opacity:1"
         id="g6335">
        <use
           height="1052.3622"
           width="744.09448"
           xlink:href="#textext-3f6f1a1d-15"
           x="401.43387"
           y="145.724"
           id="use6337" />
      </g>
      <g
         style="fill:#000000;fill-opacity:1"
         id="g6339">
        <use
           height="1052.3622"
           width="744.09448"
           xlink:href="#textext-3f6f1a1d-16"
           x="410.13306"
           y="145.724"
           id="use6341" />
      </g>
      <g
         style="fill:#000000;fill-opacity:1"
         id="g6343">
        <use
           height="1052.3622"
           width="744.09448"
           xlink:href="#textext-3f6f1a1d-17"
           x="414.48087"
           y="145.724"
           id="use6345" />
      </g>
      <g
         style="fill:#000000;fill-opacity:1"
         id="g6347">
        <use
           height="1052.3622"
           width="744.09448"
           xlink:href="#textext-3f6f1a1d-18"
           x="419.09317"
           y="145.724"
           id="use6349" />
        <use
           height="1052.3622"
           width="744.09448"
           xlink:href="#textext-3f6f1a1d-12"
           x="423.19263"
           y="145.724"
           id="use6351" />
        <use
           height="1052.3622"
           width="744.09448"
           xlink:href="#textext-3f6f1a1d-19"
           x="426.82761"
           y="145.724"
           id="use6353" />
      </g>
    </g>
  </g>
  <g
     transform="translate(-85.647211,-43.989294)"
     ns0:text="\\large $\\Sigma$"
     ns0:preamble=""
     id="g7389">
    <defs
       id="defs7391">
      <g
         id="g7393">
        <symbol
           style="overflow:visible"
           overflow="visible"
           id="textext-1fc3042d-0">
          <path
             inkscape:connector-curvature="0"
             style="stroke:none"
             d="M 4.234375,-3.890625 C 4.328125,-4 4.34375,-4.03125 4.34375,-4.09375 c 0,-0.015625 0,-0.046875 -0.0625,-0.140625 L 1.859375,-7.8125 l 2.828125,0 c 2,0 2.609375,0.421875 2.84375,2.3125 l 0.265625,0 -0.3125,-2.65625 -6.546875,0 c -0.28125,0 -0.296875,0 -0.296875,0.265625 l 2.90625,4.3125 L 0.78125,-0.3125 C 0.6875,-0.203125 0.65625,-0.171875 0.65625,-0.125 0.65625,0 0.75,0 0.9375,0 l 6.546875,0 0.3125,-2.78125 -0.265625,0 c -0.21875,1.96875 -0.96875,2.3125 -2.875,2.3125 l -3.3125,0 z m 0,0"
             id="path7396" />
        </symbol>
      </g>
    </defs>
    <g
       id="textext-1fc3042d-1">
      <g
         style="fill:#000000;fill-opacity:1"
         id="g7399">
        <use
           height="1052.3622"
           width="744.09448"
           xlink:href="#textext-1fc3042d-0"
           x="223.43201"
           y="134.765"
           id="use7401" />
      </g>
    </g>
  </g>
  <g
     transform="translate(-106.32108,-52.389051)"
     ns0:text="\\large $+$"
     ns0:preamble=""
     id="g9249">
    <defs
       id="defs9251">
      <g
         id="g9253">
        <symbol
           style="overflow:visible"
           overflow="visible"
           id="symbol9255">
          <path
             inkscape:connector-curvature="0"
             style="stroke:none"
             d="m 4.765625,-2.765625 3.296875,0 c 0.171875,0 0.390625,0 0.390625,-0.203125 0,-0.234375 -0.203125,-0.234375 -0.390625,-0.234375 l -3.296875,0 0,-3.296875 c 0,-0.171875 0,-0.390625 -0.21875,-0.390625 -0.21875,0 -0.21875,0.203125 -0.21875,0.390625 l 0,3.296875 -3.296875,0 c -0.171875,0 -0.390625,0 -0.390625,0.21875 0,0.21875 0.203125,0.21875 0.390625,0.21875 l 3.296875,0 0,3.296875 c 0,0.171875 0,0.390625 0.21875,0.390625 0.21875,0 0.21875,-0.203125 0.21875,-0.390625 z m 0,0"
             id="path9257" />
        </symbol>
      </g>
    </defs>
    <g
       id="g9259">
      <g
         style="fill:#000000;fill-opacity:1"
         id="g9261">
        <use
           height="1052.3622"
           width="744.09448"
           xlink:href="#textext-47188942-0"
           x="223.43201"
           y="134.765"
           id="use9263" />
      </g>
    </g>
  </g>
  <g
     id="g9854"
     transform="translate(-78.386386,-27.362468)"
     ns0:preamble=""
     ns0:text="\\large $+$">
    <defs
       id="defs9856">
      <g
         id="g9858">
        <symbol
           id="textext-fa6c4e64-0"
           overflow="visible">
          <path
             id="path9861"
             d="M 4.765625 -2.765625 L 8.0625 -2.765625 C 8.234375 -2.765625 8.453125 -2.765625 8.453125 -2.96875 C 8.453125 -3.203125 8.25 -3.203125 8.0625 -3.203125 L 4.765625 -3.203125 L 4.765625 -6.5 C 4.765625 -6.671875 4.765625 -6.890625 4.546875 -6.890625 C 4.328125 -6.890625 4.328125 -6.6875 4.328125 -6.5 L 4.328125 -3.203125 L 1.03125 -3.203125 C 0.859375 -3.203125 0.640625 -3.203125 0.640625 -2.984375 C 0.640625 -2.765625 0.84375 -2.765625 1.03125 -2.765625 L 4.328125 -2.765625 L 4.328125 0.53125 C 4.328125 0.703125 4.328125 0.921875 4.546875 0.921875 C 4.765625 0.921875 4.765625 0.71875 4.765625 0.53125 Z M 4.765625 -2.765625 "
             style="stroke:none;" />
        </symbol>
      </g>
    </defs>
    <g
       id="textext-fa6c4e64-1">
      <g
         id="g9864"
         style="fill:rgb(0%,0%,0%);fill-opacity:1;">
        <use
           id="use9866"
           y="134.765"
           x="223.432"
           xlink:href="#textext-fa6c4e64-0" />
      </g>
    </g>
  </g>
  <g
     transform="translate(127.02693,-52.160816)"
     ns0:text="$q\'$"
     ns0:preamble=""
     id="g4868">
    <defs
       id="defs4870">
      <g
         id="g4872">
        <symbol
           style="overflow:visible"
           overflow="visible"
           id="textext-95c3dfce-0">
          <path
             inkscape:connector-curvature="0"
             style="stroke:none"
             d="m 4.5,-4.296875 c 0,-0.046875 -0.03125,-0.09375 -0.09375,-0.09375 -0.109375,0 -0.515625,0.390625 -0.671875,0.6875 C 3.515625,-4.25 3.125,-4.40625 2.796875,-4.40625 c -1.171875,0 -2.390625,1.46875 -2.390625,2.921875 0,0.96875 0.578125,1.59375 1.3125,1.59375 0.421875,0 0.8125,-0.234375 1.171875,-0.59375 -0.09375,0.34375 -0.421875,1.6875 -0.453125,1.78125 -0.078125,0.28125 -0.15625,0.3125 -0.71875,0.328125 -0.125,0 -0.21875,0 -0.21875,0.203125 0,0 0,0.109375 0.125,0.109375 0.3125,0 0.671875,-0.03125 1,-0.03125 0.328125,0 0.6875,0.03125 1.03125,0.03125 0.046875,0 0.171875,0 0.171875,-0.203125 C 3.828125,1.625 3.734375,1.625 3.5625,1.625 3.09375,1.625 3.09375,1.5625 3.09375,1.46875 3.09375,1.390625 3.109375,1.328125 3.125,1.25 z m -2.75,4.1875 c -0.609375,0 -0.640625,-0.765625 -0.640625,-0.9375 0,-0.484375 0.28125,-1.5625 0.453125,-1.984375 0.3125,-0.734375 0.828125,-1.15625 1.234375,-1.15625 0.65625,0 0.796875,0.8125 0.796875,0.875 0,0.0625 -0.546875,2.25 -0.578125,2.28125 C 2.859375,-0.75 2.296875,-0.109375 1.75,-0.109375 z m 0,0"
             id="path4875" />
        </symbol>
        <symbol
           style="overflow:visible"
           overflow="visible"
           id="textext-95c3dfce-1">
          <path
             inkscape:connector-curvature="0"
             style="stroke:none"
             d="m 2.015625,-3.296875 c 0.0625,-0.109375 0.0625,-0.171875 0.0625,-0.21875 0,-0.21875 -0.1875,-0.375 -0.40625,-0.375 -0.265625,0 -0.34375,0.21875 -0.375,0.328125 L 0.375,-0.546875 c -0.015625,0.015625 -0.046875,0.09375 -0.046875,0.109375 0,0.078125 0.21875,0.15625 0.28125,0.15625 0.046875,0 0.046875,-0.015625 0.09375,-0.125 z m 0,0"
             id="path4878" />
        </symbol>
      </g>
    </defs>
    <g
       id="textext-95c3dfce-2">
      <g
         style="fill:#000000;fill-opacity:1"
         id="g4881">
        <use
           height="1052.3622"
           width="744.09448"
           xlink:href="#textext-95c3dfce-0"
           x="223.43201"
           y="134.765"
           id="use4883" />
      </g>
      <g
         style="fill:#000000;fill-opacity:1"
         id="g4885">
        <use
           height="1052.3622"
           width="744.09448"
           xlink:href="#textext-95c3dfce-1"
           x="228.237"
           y="131.149"
           id="use4887" />
      </g>
    </g>
  </g>
  <g
     id="g5503"
     transform="translate(101.56018,11.966305)"
     ns0:preamble=""
     ns0:text="$p\' u\' \\rho\'$">
    <defs
       id="defs5505">
      <g
         id="g5507">
        <symbol
           id="textext-5be1e277-0"
           overflow="visible">
          <path
             id="path5510"
             d="M 0.453125 1.21875 C 0.375 1.5625 0.34375 1.625 -0.09375 1.625 C -0.203125 1.625 -0.3125 1.625 -0.3125 1.8125 C -0.3125 1.890625 -0.265625 1.9375 -0.1875 1.9375 C 0.078125 1.9375 0.375 1.90625 0.640625 1.90625 C 0.984375 1.90625 1.3125 1.9375 1.640625 1.9375 C 1.6875 1.9375 1.8125 1.9375 1.8125 1.734375 C 1.8125 1.625 1.71875 1.625 1.578125 1.625 C 1.078125 1.625 1.078125 1.5625 1.078125 1.46875 C 1.078125 1.34375 1.5 -0.28125 1.5625 -0.53125 C 1.6875 -0.234375 1.96875 0.109375 2.484375 0.109375 C 3.640625 0.109375 4.890625 -1.34375 4.890625 -2.8125 C 4.890625 -3.75 4.3125 -4.40625 3.5625 -4.40625 C 3.0625 -4.40625 2.578125 -4.046875 2.25 -3.65625 C 2.15625 -4.203125 1.71875 -4.40625 1.359375 -4.40625 C 0.890625 -4.40625 0.703125 -4.015625 0.625 -3.84375 C 0.4375 -3.5 0.3125 -2.90625 0.3125 -2.875 C 0.3125 -2.765625 0.40625 -2.765625 0.421875 -2.765625 C 0.53125 -2.765625 0.53125 -2.78125 0.59375 -3 C 0.765625 -3.703125 0.96875 -4.1875 1.328125 -4.1875 C 1.5 -4.1875 1.640625 -4.109375 1.640625 -3.734375 C 1.640625 -3.5 1.609375 -3.390625 1.5625 -3.21875 Z M 2.203125 -3.109375 C 2.265625 -3.375 2.546875 -3.65625 2.71875 -3.8125 C 3.078125 -4.109375 3.359375 -4.1875 3.53125 -4.1875 C 3.921875 -4.1875 4.171875 -3.84375 4.171875 -3.25 C 4.171875 -2.65625 3.84375 -1.515625 3.65625 -1.140625 C 3.3125 -0.4375 2.84375 -0.109375 2.46875 -0.109375 C 1.8125 -0.109375 1.6875 -0.9375 1.6875 -1 C 1.6875 -1.015625 1.6875 -1.03125 1.71875 -1.15625 Z M 2.203125 -3.109375 "
             style="stroke:none;" />
        </symbol>
        <symbol
           id="textext-5be1e277-1"
           overflow="visible">
          <path
             id="path5513"
             d="M 3.484375 -0.5625 C 3.59375 -0.15625 3.953125 0.109375 4.375 0.109375 C 4.71875 0.109375 4.953125 -0.125 5.109375 -0.4375 C 5.28125 -0.796875 5.40625 -1.40625 5.40625 -1.421875 C 5.40625 -1.53125 5.328125 -1.53125 5.296875 -1.53125 C 5.1875 -1.53125 5.1875 -1.484375 5.15625 -1.34375 C 5.015625 -0.78125 4.828125 -0.109375 4.40625 -0.109375 C 4.203125 -0.109375 4.09375 -0.234375 4.09375 -0.5625 C 4.09375 -0.78125 4.21875 -1.25 4.296875 -1.609375 L 4.578125 -2.6875 C 4.609375 -2.828125 4.703125 -3.203125 4.75 -3.359375 C 4.796875 -3.59375 4.890625 -3.96875 4.890625 -4.03125 C 4.890625 -4.203125 4.75 -4.296875 4.609375 -4.296875 C 4.5625 -4.296875 4.296875 -4.28125 4.21875 -3.953125 C 4.03125 -3.21875 3.59375 -1.46875 3.46875 -0.953125 C 3.453125 -0.90625 3.0625 -0.109375 2.328125 -0.109375 C 1.8125 -0.109375 1.71875 -0.5625 1.71875 -0.921875 C 1.71875 -1.484375 2 -2.265625 2.25 -2.953125 C 2.375 -3.265625 2.421875 -3.40625 2.421875 -3.59375 C 2.421875 -4.03125 2.109375 -4.40625 1.609375 -4.40625 C 0.65625 -4.40625 0.296875 -2.953125 0.296875 -2.875 C 0.296875 -2.765625 0.390625 -2.765625 0.40625 -2.765625 C 0.515625 -2.765625 0.515625 -2.796875 0.5625 -2.953125 C 0.8125 -3.8125 1.203125 -4.1875 1.578125 -4.1875 C 1.671875 -4.1875 1.828125 -4.171875 1.828125 -3.859375 C 1.828125 -3.625 1.71875 -3.328125 1.65625 -3.1875 C 1.28125 -2.1875 1.078125 -1.578125 1.078125 -1.09375 C 1.078125 -0.140625 1.765625 0.109375 2.296875 0.109375 C 2.953125 0.109375 3.3125 -0.34375 3.484375 -0.5625 Z M 3.484375 -0.5625 "
             style="stroke:none;" />
        </symbol>
        <symbol
           id="textext-5be1e277-2"
           overflow="visible">
          <path
             id="path5516"
             d="M 0.328125 1.71875 C 0.296875 1.84375 0.296875 1.859375 0.296875 1.890625 C 0.296875 2.03125 0.40625 2.15625 0.578125 2.15625 C 0.78125 2.15625 0.90625 1.96875 0.921875 1.9375 C 0.984375 1.859375 1.296875 0.515625 1.5625 -0.5625 C 1.765625 -0.15625 2.078125 0.109375 2.546875 0.109375 C 3.71875 0.109375 5 -1.296875 5 -2.78125 C 5 -3.84375 4.34375 -4.40625 3.625 -4.40625 C 2.65625 -4.40625 1.609375 -3.40625 1.3125 -2.1875 Z M 2.546875 -0.109375 C 1.84375 -0.109375 1.6875 -0.90625 1.6875 -1 C 1.6875 -1.03125 1.734375 -1.234375 1.765625 -1.359375 C 2.046875 -2.484375 2.140625 -2.84375 2.359375 -3.234375 C 2.796875 -3.96875 3.296875 -4.1875 3.59375 -4.1875 C 3.96875 -4.1875 4.28125 -3.890625 4.28125 -3.203125 C 4.28125 -2.65625 4 -1.546875 3.734375 -1.0625 C 3.40625 -0.421875 2.921875 -0.109375 2.546875 -0.109375 Z M 2.546875 -0.109375 "
             style="stroke:none;" />
        </symbol>
        <symbol
           id="textext-5be1e277-3"
           overflow="visible">
          <path
             id="path5519"
             d="M 2.015625 -3.296875 C 2.078125 -3.40625 2.078125 -3.46875 2.078125 -3.515625 C 2.078125 -3.734375 1.890625 -3.890625 1.671875 -3.890625 C 1.40625 -3.890625 1.328125 -3.671875 1.296875 -3.5625 L 0.375 -0.546875 C 0.359375 -0.53125 0.328125 -0.453125 0.328125 -0.4375 C 0.328125 -0.359375 0.546875 -0.28125 0.609375 -0.28125 C 0.65625 -0.28125 0.65625 -0.296875 0.703125 -0.40625 Z M 2.015625 -3.296875 "
             style="stroke:none;" />
        </symbol>
      </g>
    </defs>
    <g
       id="textext-5be1e277-4">
      <g
         id="g5522"
         style="fill:rgb(0%,0%,0%);fill-opacity:1;">
        <use
           id="use5524"
           y="134.765"
           x="223.432"
           xlink:href="#textext-5be1e277-0" />
      </g>
      <g
         id="g5526"
         style="fill:rgb(0%,0%,0%);fill-opacity:1;">
        <use
           id="use5528"
           y="131.149"
           x="228.445"
           xlink:href="#textext-5be1e277-3" />
      </g>
      <g
         id="g5530"
         style="fill:rgb(0%,0%,0%);fill-opacity:1;">
        <use
           id="use5532"
           y="134.765"
           x="231.24"
           xlink:href="#textext-5be1e277-1" />
      </g>
      <g
         id="g5534"
         style="fill:rgb(0%,0%,0%);fill-opacity:1;">
        <use
           id="use5536"
           y="131.149"
           x="236.943"
           xlink:href="#textext-5be1e277-3" />
      </g>
      <g
         id="g5538"
         style="fill:rgb(0%,0%,0%);fill-opacity:1;">
        <use
           id="use5540"
           y="134.765"
           x="239.738"
           xlink:href="#textext-5be1e277-2" />
      </g>
      <g
         id="g5542"
         style="fill:rgb(0%,0%,0%);fill-opacity:1;">
        <use
           id="use5544"
           y="131.149"
           x="244.889"
           xlink:href="#textext-5be1e277-3" />
      </g>
    </g>
  </g>
</svg>
